<svg width="2007" height="476" xmlns="http://www.w3.org/2000/svg" xmlns:xlink="http://www.w3.org/1999/xlink" xml:space="preserve" overflow="hidden"><defs><clipPath id="clip0"><rect x="0" y="57" width="2007" height="476"/></clipPath></defs><g clip-path="url(#clip0)" transform="matrix(1 0 0 1 0 -57)"><path d="M0.0183106 0 5449.94 0 5449.94 7444.49 0.0183106 7444.49Z" fill="#F6F6F6" transform="matrix(1.00077 0 0 -1 -1750.64 4787)"/><path d="M5190.42 315.161 259.534 315.161 259.534 5942.35 5190.42 5942.35Z" fill="#FFFFFF" transform="matrix(1.00077 0 0 -1 -1750.64 4787)"/><path d="M0 0-115.558 0-115.558 155.603-76.886 155.603-76.886 34.0943 0 34.0943Z" fill="#332D2B" transform="matrix(1.00077 0 0 -1 122.142 -1568.8)"/><path d="M0 0C0 14.4104-10.0708 26.0834-24.939 26.0834-40.0452 26.0834-50.116 14.4104-50.116 0-50.116-14.8773-40.0452-26.7792-24.939-26.7792-10.0708-26.7792 0-14.8773 0 0M35.0098 0.219727C35.0098-33.6457 9.84193-58.8135-25.1679-58.8135-60.1777-58.8135-85.3547-33.6457-85.3547 0.219727-85.3547 33.6365-60.1777 58.1177-25.1679 58.1177 9.84193 58.1177 35.0098 33.6365 35.0098 0.219727" fill="#332D2B" transform="matrix(1.00077 0 0 -1 219.729 -1624.18)"/><path d="M0 0 0 30.6702C-6.86646 38.443-14.8682 40.9699-22.879 40.9699-37.9853 40.9699-48.9716 30.2124-48.9716 14.1907-48.9716 2.06909-37.9853-10.2905-22.879-10.2905-14.8682-10.2905-6.86646-7.78199 0 0M37.0697-41.8671C37.0697-76.6572 12.3596-96.7896-22.4213-96.7896-56.0669-96.7896-80.5482-77.5727-82.3792-48.7336L-45.7672-48.7336C-43.9362-59.0332-36.1542-65.4328-22.4213-65.4328-9.84193-65.4328-8.13152e-15-57.66-8.13152e-15-42.5537L-8.13152e-15-32.0343C-8.23975-36.8317-18.0817-39.8163-30.2033-39.8163-60.1777-39.8163-85.3547-15.7929-85.3547 14.1907-85.3547 48.0561-60.1777 71.164-30.2033 71.164-18.0817 71.164-8.23975 67.9688-4.06576e-15 62.9334L-4.06576e-15 67.2822 37.0697 67.2822Z" fill="#332D2B" transform="matrix(1.00077 0 0 -1 354.417 -1612.5)"/><path d="M0 0C0 14.4104-10.0708 26.0834-24.939 26.0834-40.0452 26.0834-50.116 14.4104-50.116 0-50.116-14.8773-40.0452-26.7792-24.939-26.7792-10.0708-26.7792 0-14.8773 0 0M35.0098 0.219727C35.0098-33.6457 9.84193-58.8135-25.1679-58.8135-60.1777-58.8135-85.3547-33.6457-85.3547 0.219727-85.3547 33.6365-60.1777 58.1177-25.1679 58.1177 9.84193 58.1177 35.0098 33.6365 35.0098 0.219727" fill="#332D2B" transform="matrix(1.00077 0 0 -1 496.661 -1624.18)"/><path d="M0 0C25.1679 0 44.6228 18.7683 44.6228 43.4784 44.6228 67.5019 25.1679 86.0413 0 86.0413L-24.0235 86.0413-24.0235 0ZM0 120.822C48.7427 120.822 83.9722 89.0168 83.9722 43.4784 83.9722-2.74658 48.7427-34.7809 0-34.7809L-62.7045-34.7809-62.7045 120.822Z" fill="#332D2B" transform="matrix(1.00077 0 0 -1 674.87 -1603.58)"/><path d="M0 0 45.3095 0C43.2495 12.1307 35.2387 18.5303 23.346 18.5303 10.7575 18.5303 2.74658 11.2152 0 0M79.4037-21.048 79.6326-21.7346 0.457764-21.7346C3.43323-31.8054 11.2152-39.5874 25.4059-39.5874 33.1879-39.5874 39.1297-36.612 42.334-31.5766L78.946-31.5766C73.6817-54.4556 52.4048-68.8752 24.9481-68.8752-11.4349-68.8752-35.6964-44.6228-35.6964-10.7575-35.6964 22.8882-12.1307 47.1314 23.346 47.1314 55.6092 47.1314 80.0904 24.9481 80.0904-8.46863 80.0904-12.5794 80.0904-16.9373 79.4037-21.048" fill="#332D2B" transform="matrix(1.00077 0 0 -1 807.499 -1635.16)"/><path d="M0 0C1.60217-9.61304 9.61304-13.9618 21.286-13.9618 31.1188-13.9618 37.0697-10.9863 37.0697-6.17981 37.0697-2.5177 33.6365 0.457764 26.3214 1.60217L3.89099 5.49317C-15.3259 8.68836-28.6011 19.4458-28.6011 38.9008-28.6011 62.2376-8.69752 75.9705 20.8191 75.9705 44.394 75.9705 71.164 66.8152 72.7662 37.5275L39.8163 37.5275C39.1297 45.987 31.3477 49.878 21.048 49.878 11.4441 49.878 7.09534 46.2159 7.09534 41.8671 7.09534 38.2141 9.84193 34.7809 18.5303 33.1787L39.3585 29.7455C60.1777 25.8545 73.9106 15.7929 73.9106-3.90015 73.9106-29.5258 50.8026-41.4185 21.9635-41.4185-7.09534-41.4185-30.661-29.2877-32.9499 0.219727Z" fill="#332D2B" transform="matrix(1.00077 0 0 -1 932.796 -1606.79)"/><path d="M2813.21 6355.8 2776.14 6355.8 2776.14 6466.78 2813.21 6466.78ZM2772.7 6504.99C2772.7 6517.12 2782.32 6526.05 2794.45 6526.05 2806.34 6526.05 2816.18 6517.12 2816.18 6504.99 2816.18 6493.09 2806.34 6484.17 2794.45 6484.17 2782.32 6484.17 2772.7 6493.09 2772.7 6504.99" fill="#332D2B" transform="matrix(1.00077 0 0 -1 -1750.64 4787)"/><path d="M0 0 0 30.6702C-6.86646 38.443-14.8682 40.9699-22.879 40.9699-37.9853 40.9699-48.9716 30.2124-48.9716 14.1907-48.9716 2.06909-37.9853-10.2905-22.879-10.2905-14.8682-10.2905-6.86646-7.78199 0 0M37.0697-41.8671C37.0697-76.6572 12.3596-96.7896-22.4304-96.7896-56.0578-96.7896-80.5482-77.5727-82.3792-48.7336L-45.7672-48.7336C-43.9362-59.0332-36.1542-65.4328-22.4304-65.4328-9.84193-65.4328 1.21973e-14-57.66 1.21973e-14-42.5537L1.21973e-14-32.0343C-8.23975-36.8317-18.0817-39.8163-30.2033-39.8163-60.1777-39.8163-85.3547-15.7929-85.3547 14.1907-85.3547 48.0561-60.1777 71.164-30.2033 71.164-18.0817 71.164-8.23975 67.9688 1.21973e-14 62.9334L1.21973e-14 67.2822 37.0697 67.2822Z" fill="#332D2B" transform="matrix(1.00077 0 0 -1 1171.92 -1612.5)"/><path d="M0 0 0-63.382-37.2986-63.382-37.2986-5.94178C-37.2986 9.84193-45.3095 17.395-57.4311 17.395-64.2975 17.395-71.6218 13.5132-78.0304 6.17981L-78.0304-63.382-115.1-63.382-115.1 47.5983-78.0304 47.5983-78.0304 40.0452C-69.104 47.1405-59.2713 51.0315-47.3694 51.0315-19.2261 51.0315 0 31.5766 0 0" fill="#332D2B" transform="matrix(1.00077 0 0 -1 1349.66 -1632.18)"/><path d="M0 0 66.8152 0 66.8152-33.6457 0-33.6457 0-88.559-38.6719-88.559-38.6719 67.0441 77.3438 67.0441 77.3438 32.9499 0 32.9499Z" fill="#332D2B" transform="matrix(1.00077 0 0 -1 1471.99 -1657.36)"/><path d="M3351.76 6355.8 3314.69 6355.8 3314.69 6466.78 3351.76 6466.78ZM3311.25 6504.99C3311.25 6517.12 3320.87 6526.05 3332.99 6526.05 3344.89 6526.05 3354.73 6517.12 3354.73 6504.99 3354.73 6493.09 3344.89 6484.17 3332.99 6484.17 3320.87 6484.17 3311.25 6493.09 3311.25 6504.99" fill="#332D2B" transform="matrix(1.00077 0 0 -1 -1750.64 4787)"/><path d="M0 0 0-63.382-37.2986-63.382-37.2986-5.94178C-37.2986 9.84193-45.3095 17.395-57.4311 17.395-64.2975 17.395-71.6218 13.5132-78.0304 6.17981L-78.0304-63.382-115.1-63.382-115.1 47.5983-78.0304 47.5983-78.0304 40.0452C-69.104 47.1405-59.2713 51.0315-47.3694 51.0315-19.2261 51.0315 0 31.5766 0 0" fill="#332D2B" transform="matrix(1.00077 0 0 -1 1744.77 -1632.18)"/><path d="M0 0 0 34.3231C-6.85731 42.334-14.8682 44.8426-23.1079 44.8426-38.2141 44.8426-49.2005 32.4921-49.2005 17.157-49.2005 1.8219-38.2141-10.2997-23.1079-10.2997-14.8682-10.2997-6.85731-8.01087-4.06576e-15-4.06576e-15M37.0697-38.443 0-38.443 0-32.2632C-8.2306-37.5366-18.3014-40.7318-30.4321-40.7318-60.4065-40.7318-85.5836-15.7929-85.5836 17.157-85.5836 50.3357-60.4065 75.0458-30.4321 75.0458-18.3014 75.0458-8.2306 71.8506 8.13152e-15 66.5863L8.13152e-15 72.5373 37.0697 72.5373Z" fill="#332D2B" transform="matrix(1.00077 0 0 -1 1847.85 -1607.25)"/><path d="M3695.07 6355.8 3658 6355.8 3658 6518.27 3695.07 6518.27Z" fill="#332D2B" transform="matrix(1.00077 0 0 -1 -1750.64 4787)"/><path d="M0 0C0 3.84522-1.30005 6.6742-3.89099 8.4961-6.49109 10.3363-10.318 11.2518-15.3992 11.2518L-22.9065 11.2518-22.9065-12.2131C-21.7346-12.323-20.462-12.4054-19.0979-12.4603-17.7246-12.5153-16.2048-12.5336-14.5203-12.5336-9.96095-12.5336-6.39039-11.4258-3.83606-9.22852-1.28174-7.01294 0-3.93677 0 0M-3.83606 31.7963C-3.83606 33.0963-4.05579 34.3506-4.48609 35.5316-4.9347 36.731-5.64881 37.7838-6.65589 38.6994-7.66297 39.6057-8.95386 40.3199-10.5469 40.86-12.1399 41.3819-14.0808 41.6474-16.3788 41.6474-17.807 41.6474-19.043 41.6291-20.0775 41.5924-21.1212 41.5558-22.0642 41.5009-22.9065 41.4276L-22.9065 19.8486-18.4113 19.8486C-13.6597 19.8486-10.0525 20.8649-7.56226 22.9065-5.08118 24.9664-3.83606 27.9144-3.83606 31.7963M10.9589 0.338745C10.9589-2.84729 10.4462-5.74036 9.39332-8.36793 8.34962-11.0138 6.71998-13.266 4.52271-15.1611 2.30713-17.0746-0.50354-18.5394-3.91846-19.6198-7.33338-20.6726-11.4166-21.1945-16.1682-21.1945-17.3584-21.1945-18.7683-21.1762-20.3522-21.1212-21.9361-21.0663-23.5474-20.9931-25.177-20.9015-26.8067-20.81-28.3631-20.6909-29.8645-20.5444-31.366-20.4071-32.6294-20.2423-33.7006-20.0958L-33.7006 49.7132C-31.5399 49.8871-28.9398 50.0153-25.8911 50.1068-22.8333 50.2076-19.7022 50.2442-16.4887 50.2442-12.7716 50.2442-9.42994 49.8505-6.49109 49.0631-3.5614 48.2758-1.07117 47.1497 0.961304 45.6482 2.98462 44.1468 4.52271 42.3065 5.58472 40.1093 6.65589 37.9303 7.17774 35.4035 7.17774 32.547 7.17774 30.6885 6.92139 28.949 6.4087 27.3194 5.90516 25.6989 5.19104 24.2157 4.30298 22.8516 3.40576 21.4966 2.34375 20.2973 1.08948 19.2444-0.146484 18.1824-1.50147 17.3126-2.95716 16.6077-1.01624 16.1316 0.796509 15.4266 2.49024 14.502 4.19312 13.5681 5.66712 12.4054 6.93055 11.0504 8.19398 9.67713 9.17359 8.10242 9.8877 6.30799 10.6018 4.52271 10.9589 2.5177 10.9589 0.338745" fill="#332D2B" transform="matrix(1.00077 0 0 -1 817.893 -2076.4)"/><path d="M0 0C0 3.39661-1.21765 5.86853-3.6438 7.41578-6.07911 8.97217-9.81446 9.74122-14.859 9.74122L-20.6543 9.74122-20.6543-11.8927-15.3992-11.8927C-10.4279-11.8927-6.63758-10.8582-3.97339-8.74329-1.32752-6.65589 0-3.73535 0 0M16.6992-51.9471 3.9917-51.9471-15.7379-20.6543-20.6543-20.6543-20.6543-51.9471-31.4667-51.9471-31.4667 18.9514-15.3992 18.9514C-11.6364 18.9514-8.13904 18.6493-4.87976 18.0451-1.62964 17.45 1.19934 16.4337 3.59803 14.9872 5.96924 13.5315 7.84608 11.6181 9.22852 9.26514 10.6018 6.88477 11.2793 3.90015 11.2793 0.320435 11.2793-2.30713 10.8215-4.70581 9.8877-6.84815 8.96302-9.0088 7.72706-10.8948 6.22559-12.497 4.70581-14.1083 2.948-15.445 0.979615-16.5253-0.979615-17.5964-3.02124-18.3838-5.09949-18.8507Z" fill="#332D2B" transform="matrix(1.00077 0 0 -1 896.623 -2107.48)"/><path d="M0 0C-0.183106 0.521851-0.393677 1.25427-0.677491 2.21558-0.942994 3.18604-1.18103 4.20227-1.35498 5.25513L-1.57471 5.25513C-1.74866 4.12903-1.9867 3.07617-2.27051 2.10571-2.53601 1.14441-2.81067 0.320435-3.05786-0.320435L-11.6547-24.1059 8.99049-24.1059ZM31.7414-53.8605 20.1691-53.8605 12.2315-33.5266-15.0604-33.5266-22.4579-53.8605-34.0119-53.8605-6.5094 17.038 3.90015 17.038Z" fill="#332D2B" transform="matrix(1.00077 0 0 -1 971.818 -2109.39)"/><path d="M0 0-10.5652 0-45.2545 46.0236C-45.5109 46.3166-45.9412 46.9025-46.5454 47.7997-47.1497 48.6878-47.7997 49.6766-48.4589 50.7294-49.1364 51.8006-49.7773 52.8351-50.409 53.8605-51.0315 54.8767-51.4801 55.6641-51.7823 56.2226L-51.7823 0-61.7432 0-61.7432 70.8985-50.409 70.8985-17.3126 26.4679C-16.7725 25.6989-16.1316 24.765-15.3992 23.6939-14.6668 22.6227-13.9435 21.5332-13.266 20.4071-12.5702 19.2902-11.911 18.2373-11.3159 17.2394-10.7117 16.214-10.2448 15.4175-9.92432 14.7858L-9.92432 70.8985 0 70.8985Z" fill="#332D2B" transform="matrix(1.00077 0 0 -1 1097.93 -2055.53)"/><path d="M0 0C0 4.34876-0.677491 8.08411-2.05994 11.2335-3.43323 14.3738-5.3833 16.9739-7.91932 19.0064-10.4645 21.0663-13.5498 22.5678-17.2394 23.5291-20.9015 24.4995-25.0305 24.9848-29.6448 24.9848L-38.031 24.9848-38.031-27.6123-30.6336-27.6123C-25.9461-27.6123-21.7255-26.9623-17.9535-25.6806-14.1632-24.3714-10.9406-22.5311-8.27637-20.1325-5.61219-17.7338-3.5614-14.8407-2.12402-11.4258-0.714112-8.01087 0-4.20227 0 0M11.1237 0.109863C11.1237-5.40162 10.1074-10.4279 8.08411-14.9689 6.0608-19.4916 3.22266-23.3734-0.448609-26.6052-4.09241-29.8462-8.45948-32.3273-13.5315-34.0851-18.6127-35.8338-24.1974-36.7127-30.2948-36.7127L-48.816-36.7127-48.816 34.1858-29.4159 34.1858C-22.9981 34.1858-17.276 33.4717-12.2498 32.0252-7.22352 30.5786-2.98462 28.4363 0.50354 25.5524 3.97339 22.6959 6.60096 19.1345 8.40455 14.8773 10.2081 10.6201 11.1237 5.70374 11.1237 0.109863" fill="#332D2B" transform="matrix(1.00077 0 0 -1 1188.76 -2092.24)"/><path d="M2997.38 6842.53 2986.6 6842.53 2986.6 6913.43 2997.38 6913.43Z" fill="#332D2B" transform="matrix(1.00077 0 0 -1 -1750.64 4787)"/><path d="M0 0C0 4.31214-0.466919 8.17566-1.40991 11.5906-2.36206 15.0055-3.77198 17.8986-5.6305 20.2789-7.48902 22.6593-9.79615 24.4629-12.5336 25.7355-15.271 26.9806-18.4387 27.6306-22.0093 27.6306-25.4425 27.6306-28.5553 26.944-31.366 25.6256-34.1492 24.2798-36.5296 22.403-38.5163 20.0134-40.4846 17.5964-42.0044 14.7034-43.0756 11.3159-44.1651 7.93763-44.7052 4.20227-44.7052 0.109863-44.7052-3.97339-44.1834-7.70875-43.1671-11.0687-42.1509-14.4287-40.6769-17.2943-38.7451-19.6655-36.8317-22.0459-34.5337-23.8861-31.7963-25.1953-29.0772-26.5137-26.0376-27.182-22.6776-27.182-19.0979-27.182-15.8936-26.5503-13.0921-25.3418-10.2814-24.1059-7.90101-22.348-5.95093-20.0318-4.02832-17.7063-2.53601-14.859-1.51978-11.4807-0.50354-8.10242 0-4.27552 0 0M11.0687 1.16272C11.0687-4.57764 10.2997-9.75953 8.74329-14.3738 7.18689-19.0064 4.97132-22.9248 2.05994-26.1566-0.842286-29.3976-4.38538-31.8787-8.55103-33.6182-12.6984-35.3485-17.4133-36.2091-22.6776-36.2091-27.713-36.2091-32.2724-35.3668-36.3739-33.6731-40.4663-31.9702-43.9545-29.5624-46.8293-26.4313-49.7315-23.3185-51.9471-19.5648-53.5218-15.1611-55.0965-10.7849-55.8838-5.91431-55.8838-0.540162-55.8838 5.08118-55.1148 10.1898-53.5584 14.7675-52.002 19.3451-49.7498 23.2636-46.7743 26.5045-43.8263 29.7363-40.2191 32.2266-35.9619 33.9752-31.7047 35.7239-26.8799 36.6028-21.4783 36.6028-16.5436 36.6028-12.0667 35.7422-8.04749 34.0302-4.02832 32.309-0.604248 29.9011 2.23389 26.77 5.06287 23.6389 7.24183 19.9036 8.77991 15.5548 10.318 11.2152 11.0687 6.41785 11.0687 1.16272" fill="#332D2B" transform="matrix(1.00077 0 0 -1 1343.39 -2090.76)"/><path d="M0 0C-22.0825 0-40.7685 14.5386-47.0398 34.5429L-23.4467 34.5429-14.5569 34.5429 47.049 34.5429C40.7685 14.5386 22.0917 0 0 0M4.74243 102.924 4.97132 102.924 49.1547 102.924C49.2005 102.063 49.2829 101.23 49.2829 100.351L49.2829 49.2829C49.2829 47.1314 49.0998 45.044 48.8343 42.9657L4.74243 42.9657ZM-49.2829 49.2829-49.2829 69.9921-12.3413 42.9657-14.5569 42.9657-23.4467 42.9657-48.8343 42.9657C-49.0998 45.044-49.2829 47.1314-49.2829 49.2829M-3.67127 70.6147-3.67127 47.0673-35.8795 70.6147ZM-49.2829 100.351C-49.2829 101.23-49.2005 102.063-49.1547 102.924L-3.90015 102.924-3.67127 102.924-3.67127 79.0375-49.2829 79.0375ZM0 149.634C23.4284 149.634 43.0023 133.273 48.0011 111.347L4.97132 111.347-3.90015 111.347-48.0011 111.347C-42.9932 133.273-23.4284 149.634 0 149.634M0 158.057C-31.8146 158.057-57.7057 132.166-57.7057 100.351L-57.7057 49.2829C-57.7057 17.4683-31.8146-8.42286 0-8.42286 31.8146-8.42286 57.7057 17.4683 57.7057 49.2829L57.7057 100.351C57.7057 132.166 31.8146 158.057 0 158.057" fill="#332D2B" transform="matrix(1.00077 0 0 -1 656.156 -2015.84)"/><path d="M5060.42 472.98 441.806 472.98 441.806 3008.29 5060.42 3008.29Z" fill="#48615D" transform="matrix(1.00077 0 0 -1 -1750.64 4787)"/><path d="M0 0C0 4.6875-1.08032 8.25806-3.25928 10.73-5.42908 13.2111-8.35877 14.447-12.0667 14.447-13.5681 14.447-15.0696 14.1815-16.5711 13.6505-18.0725 13.1104-19.4184 12.3139-20.636 11.2701-21.8353 10.2081-22.815 8.94471-23.5748 7.47071-24.3256 5.98755-24.7009 4.27552-24.7009 2.34375L-24.7009-10.4096C-24.7009-11.7096-24.3897-12.9547-23.7671-14.1632-23.1537-15.3717-22.284-16.4703-21.1579-17.4317-20.0318-18.4021-18.7042-19.1803-17.1753-19.7754-15.6372-20.3705-13.9435-20.6635-12.0667-20.6635-8.35877-20.6635-5.42908-19.3817-3.25928-16.8274-1.08032-14.2731 0-10.6842 0-6.05164ZM-24.7009-19.693-24.7009-42.1326-30.2674-42.1326-30.2674 18.6493-24.7742 18.6493-24.7742 12.5153C-23.4833 14.7217-21.6705 16.4337-19.3268 17.6331-16.9922 18.8507-14.447 19.455-11.7096 19.455-9.11866 19.455-6.76575 19.0338-4.64173 18.2007-2.50855 17.3676-0.695801 16.1591 0.805665 14.5752 2.31629 12.9822 3.48816 11.0321 4.32129 8.72498 5.15442 6.39954 5.56641 3.77198 5.56641 0.805665L5.56641-6.85731C5.56641-9.81446 5.13611-12.4512 4.27552-14.7675 3.42407-17.0838 2.22473-19.0338 0.686646-20.6177-0.842286-22.2107-2.67334-23.4192-4.79737-24.2523-6.93055-25.0855-9.22852-25.5066-11.7004-25.5066-14.7675-25.5066-17.395-24.9207-19.5648-23.7671-21.7529-22.6135-23.4375-21.2586-24.6094-19.693Z" fill="#48615D" transform="matrix(1.00077 0 0 -1 446.225 484.217)"/><path d="M0 0C-1.51062 0.595093-3.25928 0.897217-5.25513 0.897217-7.0221 0.897217-8.63343 0.540162-10.0891-0.15564-11.5448-0.860596-12.7808-1.8219-13.797-3.05786-14.8224-4.30298-15.6098-5.78614-16.1499-7.49817-16.6809-9.21937-16.9556-11.1145-16.9556-13.147L-16.9556-37.8479-22.522-37.8479-22.522 5.65796-17.038 5.65796-17.038-2.01416C-16.5527-0.98877-15.9393 0.0366211-15.2161 1.06201-14.4928 2.06909-13.6047 2.99378-12.5519 3.79944-11.5082 4.60511-10.318 5.25513-8.99964 5.73121-7.68128 6.22559-6.18897 6.46363-4.52271 6.46363-3.28675 6.46363-2.16065 6.39039-1.17188 6.25306-0.183106 6.12488 0.778199 5.896 1.69373 5.56641Z" fill="#48615D" transform="matrix(1.00077 0 0 -1 501.399 471.223)"/><path d="M0 0 0 0.732422C0 5.30091-1.0437 8.79822-3.14026 11.2244-5.23682 13.6414-8.18482 14.8499-11.9843 14.8499-15.8478 14.8499-18.8416 13.5681-20.9564 11.0138-23.0713 8.46863-24.1333 5.0354-24.1333 0.732422L-24.1333 0ZM4.59595-20.343C2.88391-21.579 0.723267-22.7051-1.85852-23.7305-4.44031-24.7559-7.56226-25.2686-11.2244-25.2686-17.0288-25.2686-21.5607-23.5291-24.82-20.0592-28.0792-16.5894-29.6997-11.6821-29.6997-5.32837L-29.6997 0.0823975C-29.6997 6.26221-28.125 11.087-24.9756 14.5294-21.817 17.9718-17.4866 19.693-11.9843 19.693-6.27137 19.693-1.91345 17.9352 1.07117 14.4104 4.0741 10.8765 5.56641 6.0608 5.56641-0.0823975L5.56641-4.59595-24.1333-4.59595-24.1333-5.32837C-24.1333-10.1715-22.9798-13.8977-20.6726-16.507-18.3472-19.1162-15.1795-20.4163-11.1328-20.4163-8.2306-20.4163-5.67627-19.9951-3.46985-19.1345-1.26343-18.2739 0.622559-17.276 2.17896-16.1408Z" fill="#48615D" transform="matrix(1.00077 0 0 -1 554.311 484.458)"/><path d="M0 0C4.96216 0 8.59681-1.34583 10.8856-4.03748 13.1744-6.72913 14.328-10.3912 14.328-15.0147L14.328-44.3116 8.7616-44.3116 8.7616-16.4612C8.7616-14.6942 8.61512-13.1012 8.31299-11.7096 8.02003-10.2997 7.50733-9.1095 6.79322-8.11158 6.0608-7.11365 5.07203-6.35376 3.8086-5.80445 2.55432-5.27344 0.952149-5.00794-0.97046-5.00794-2.73743-5.00794-4.29383-5.32837-5.63965-5.96924-6.97632-6.61927-8.11158-7.4524-9.05457-8.47779-9.99757-9.49403-10.7208-10.6567-11.2244-11.9476-11.7279-13.2385-12.0117-14.5111-12.0667-15.7471L-12.0667-44.3116-17.6331-44.3116-17.6331-16.4612C-17.6331-14.6942-17.7887-13.1012-18.0817-11.7096-18.3746-10.2997-18.8782-9.1095-19.6106-8.11158-20.3339-7.11365-21.3226-6.35376-22.5861-5.80445-23.8404-5.27344-25.4425-5.00794-27.3651-5.00794-29.1321-5.00794-30.716-5.34668-32.1167-6.01502-33.5083-6.68335-34.671-7.56226-35.6049-8.63343-36.5479-9.71375-37.2528-10.8948-37.7381-12.1857-38.2233-13.4857-38.4705-14.7766-38.4705-16.0584L-38.4705-44.3116-44.0369-44.3116-44.0369-0.805665-38.5437-0.805665-38.6261-6.86646C-38.1409-5.99671-37.5366-5.15442-36.8134-4.32129-36.0901-3.48816-35.2112-2.74658-34.1858-2.09656-33.1604-1.45569-32.0252-0.942994-30.7617-0.567627-29.4983-0.192261-28.0518 2.5411e-16-26.4313 2.5411e-16-22.934 2.5411e-16-20.1142-0.686646-17.9627-2.05994-15.8112-3.43323-14.2456-5.3833-13.2752-7.91932-12.7991-6.99463-12.1582-6.06995-11.38-5.12696-10.6018-4.18396-9.64967-3.33252-8.54188-2.59094-7.44324-1.83106-6.17066-1.2085-4.73328-0.732422-3.30506-0.238037-1.73035 0 0 0" fill="#48615D" transform="matrix(1.00077 0 0 -1 630.85 464.76)"/><path d="M2422.89 4321.43 2428.46 4321.43 2428.46 4277.92 2422.89 4277.92ZM2422.64 4335.88 2428.7 4335.88 2428.7 4329.74 2422.64 4329.74Z" fill="#48615D" transform="matrix(1.00077 0 0 -1 -1750.64 4787)"/><path d="M0 0C-4.96216 0-8.72498 1.37329-11.2976 4.11988-13.8886 6.86646-15.1795 10.492-15.1795 15.0147L-15.1795 44.1559-9.60389 44.1559-9.60389 16.388C-9.60389 14.8224-9.46656 13.3667-9.17359 11.9934-8.87147 10.611-8.34962 9.41163-7.59888 8.34962-6.84815 7.30591-5.79529 6.49109-4.422 5.896-3.04871 5.30091-1.30005 5.00794 0.851441 5.00794 2.67334 5.00794 4.34876 5.32837 5.86853 5.96924 7.39747 6.62842 8.71583 7.47071 9.81446 8.51441 10.9131 9.56727 11.7737 10.7391 12.3871 12.03 13.0005 13.3209 13.3118 14.6118 13.3118 15.9119L13.3118 44.1559 18.8782 44.1559 18.8782 0.650025 13.4033 0.650025 13.4033 6.70166C12.3779 5.0354 10.7391 3.49732 8.50526 2.10571 6.27137 0.704957 3.43323 0 0 0" fill="#48615D" transform="matrix(1.00077 0 0 -1 723.79 509.725)"/><path d="M0 0C4.96216 0 8.59681-1.34583 10.8856-4.03748 13.1744-6.72913 14.328-10.3912 14.328-15.0147L14.328-44.3116 8.7616-44.3116 8.7616-16.4612C8.7616-14.6942 8.61512-13.1012 8.31299-11.7096 8.02003-10.2997 7.50733-9.1095 6.79322-8.11158 6.0608-7.11365 5.07203-6.35376 3.8086-5.80445 2.55432-5.27344 0.952149-5.00794-0.97046-5.00794-2.73743-5.00794-4.29383-5.32837-5.63965-5.96924-6.97632-6.61927-8.11158-7.4524-9.05457-8.47779-9.99757-9.49403-10.7208-10.6567-11.2244-11.9476-11.7279-13.2385-12.0117-14.5111-12.0667-15.7471L-12.0667-44.3116-17.6331-44.3116-17.6331-16.4612C-17.6331-14.6942-17.7887-13.1012-18.0817-11.7096-18.3746-10.2997-18.8782-9.1095-19.6106-8.11158-20.3339-7.11365-21.3226-6.35376-22.5861-5.80445-23.8404-5.27344-25.4425-5.00794-27.3651-5.00794-29.1321-5.00794-30.716-5.34668-32.1167-6.01502-33.5083-6.68335-34.671-7.56226-35.6049-8.63343-36.5479-9.71375-37.2528-10.8948-37.7381-12.1857-38.2233-13.4857-38.4705-14.7766-38.4705-16.0584L-38.4705-44.3116-44.0369-44.3116-44.0369-0.805665-38.5437-0.805665-38.6261-6.86646C-38.1409-5.99671-37.5366-5.15442-36.8134-4.32129-36.0901-3.48816-35.2112-2.74658-34.1858-2.09656-33.1604-1.45569-32.0252-0.942994-30.7617-0.567627-29.4983-0.192261-28.0518 2.5411e-16-26.4404 2.5411e-16-22.934 2.5411e-16-20.1142-0.686646-17.9627-2.05994-15.8112-3.43323-14.2456-5.3833-13.2752-7.91932-12.7991-6.99463-12.1582-6.06995-11.38-5.12696-10.6018-4.18396-9.64967-3.33252-8.54188-2.59094-7.44324-1.83106-6.17066-1.2085-4.73328-0.732422-3.30506-0.238037-1.73035 0 0 0" fill="#48615D" transform="matrix(1.00077 0 0 -1 815.838 464.76)"/><path d="M2641.23 4338.94 2646.79 4338.94 2646.79 4277.92 2641.23 4277.92Z" fill="#48615D" transform="matrix(1.00077 0 0 -1 -1750.64 4787)"/><path d="M0 0C4.03748 0 7.20521 1.25427 9.48487 3.75366 11.7737 6.25306 12.9181 10.0891 12.9181 15.2527L12.9181 20.0134C12.9181 25.177 11.7737 29.0131 9.48487 31.5216 7.20521 34.021 4.03748 35.2753 0 35.2753-4.02832 35.2753-7.19605 34.021-9.47571 31.5216-11.7645 29.0131-12.9089 25.177-12.9089 20.0134L-12.9089 15.2527C-12.9089 10.0891-11.7645 6.25306-9.47571 3.75366-7.19605 1.25427-4.02832 0 0 0M0 40.1184C5.86853 40.1184 10.4187 38.3881 13.6505 34.9549 16.8732 31.5033 18.4845 26.6327 18.4845 20.343L18.4845 14.9323C18.4845 8.63343 16.8732 3.76282 13.6505 0.32959 10.4187-3.12195 5.86853-4.84314 0-4.84314-5.85938-4.84314-10.4096-3.12195-13.6414 0.32959-16.8732 3.76282-18.4754 8.63343-18.4754 14.9323L-18.4754 20.343C-18.4754 26.6876-16.8732 31.5766-13.6414 34.9915-10.4096 38.4064-5.85938 40.1184 2.03288e-15 40.1184" fill="#48615D" transform="matrix(1.00077 0 0 -1 943.67 504.878)"/><path d="M0 0C-4.96216 0-8.72498 1.37329-11.2976 4.11988-13.8886 6.86646-15.1795 10.492-15.1795 15.0147L-15.1795 44.1559-9.60389 44.1559-9.60389 16.388C-9.60389 14.8224-9.4574 13.3667-9.17359 11.9934-8.87147 10.611-8.34962 9.41163-7.59888 8.34962-6.84815 7.30591-5.79529 6.49109-4.422 5.896-3.04871 5.30091-1.30005 5.00794 0.851441 5.00794 2.67334 5.00794 4.34876 5.32837 5.86853 5.96924 7.39747 6.62842 8.71583 7.47071 9.81446 8.51441 10.9131 9.56727 11.7737 10.7391 12.3871 12.03 13.0005 13.3209 13.3118 14.6118 13.3118 15.9119L13.3118 44.1559 18.8782 44.1559 18.8782 0.650025 13.4033 0.650025 13.4033 6.70166C12.3779 5.0354 10.7391 3.49732 8.50526 2.10571 6.27137 0.704957 3.44239 0 0 0" fill="#48615D" transform="matrix(1.00077 0 0 -1 1004.1 509.725)"/><path d="M0 0C4.99878 0 8.86231-1.35498 11.5723-4.0741 14.3005-6.79322 15.6555-10.4462 15.6555-15.0147L15.6555-44.3116 10.0891-44.3116 10.0891-16.388C10.0891-14.8224 9.92432-13.3667 9.60389-11.9934 9.28345-10.611 8.70667-9.40247 7.87354-8.34962 7.04041-7.30591 5.91431-6.49109 4.49524-5.896 3.07617-5.30091 1.29089-5.00794-0.851441-5.00794-2.67334-5.00794-4.34876-5.34668-5.87769-6.01502-7.40662-6.68335-8.70667-7.56226-9.77784-8.63343-10.8582-9.71375-11.7004-10.8948-12.3139-12.1857-12.9364-13.4857-13.2477-14.7766-13.2477-16.0584L-13.2477-44.3116-18.8141-44.3116-18.8141-0.805665-13.3209-0.805665-13.3209-6.86646C-12.8357-6.0608-12.1948-5.23682-11.3892-4.40369-10.5835-3.5614-9.60389-2.82898-8.48694-2.17896-7.35169-1.53809-6.08826-1.01624-4.6875-0.613404-3.28675-0.201416-1.73035 0 0 0" fill="#48615D" transform="matrix(1.00077 0 0 -1 1070.9 464.76)"/><path d="M0 0C0-4.6875 1.08948-8.28553 3.2959-10.8215 5.49317-13.3484 8.4137-14.6118 12.0667-14.6118 13.8336-14.6118 15.4907-14.3829 17.0197-13.9252 18.5394-13.4674 19.867-12.7716 20.9931-11.8286 22.1192-10.8856 23.0164-9.7046 23.6847-8.27637 24.3622-6.84815 24.7009-5.16358 24.7009-3.23181L24.7009 9.04542C24.7009 10.3272 24.3897 11.6089 23.7671 12.8723 23.1537 14.1358 22.284 15.2985 21.1579 16.3422 20.0318 17.395 18.6951 18.2373 17.1387 18.8873 15.5823 19.5374 13.8886 19.8486 12.0667 19.8486 8.35877 19.8486 5.41993 18.5761 3.25928 16.0217 1.08032 13.4674 0 9.87855 0 5.24598ZM24.7009-13.0829 24.6185-13.0829C23.3734-15.2893 21.5607-16.9006 19.162-17.9169 16.7725-18.9423 14.3097-19.455 11.7828-19.455 9.24683-19.455 6.9397-19.0338 4.84314-18.2007 2.73743-17.3676 0.915528-16.1591-0.650025-14.5661-2.20642-12.9822-3.42407-11.0321-4.27552-8.72498-5.13611-6.39954-5.56641-3.77198-5.56641-0.805665L-5.56641 6.05164C-5.56641 9.01795-5.13611 11.6455-4.27552 13.9618-3.42407 16.2781-2.22473 18.2282-0.686646 19.8212 0.842286 21.3959 2.67334 22.6135 4.79737 23.4467 6.93055 24.2798 9.21937 24.7009 11.7004 24.7009 14.9323 24.7009 17.6331 24.0784 19.812 22.8424 21.991 21.6065 23.6389 20.1782 24.7742 18.5669L24.7742 23.8953 30.2674 23.8953 30.2674-18.8873C30.2674-25.0763 28.6652-29.7455 25.4608-32.8858 22.2565-36.0443 17.9443-37.619 12.5061-37.619 9.43909-37.619 6.71082-37.2162 4.31214-36.4014 1.91345-35.5957-0.192261-34.4971-2.02332-33.0963L0.48523-28.8208C1.50147-29.5166 2.46277-30.0934 3.3783-30.5512 4.29383-31.0089 5.21851-31.3843 6.15235-31.6864 7.09534-31.9794 8.07496-32.1808 9.09119-32.2907 10.1074-32.3914 11.2335-32.4555 12.4695-32.4555 16.4887-32.4555 19.5374-31.3568 21.5973-29.1779 23.6572-26.9989 24.7009-23.6298 24.7009-19.0521Z" fill="#48615D" transform="matrix(1.00077 0 0 -1 1118.8 489.459)"/><path d="M0 0 0 0.732422C0 5.30091-1.05286 8.79822-3.14026 11.2244-5.23682 13.6414-8.18482 14.8499-11.9934 14.8499-15.8478 14.8499-18.8416 13.5681-20.9564 11.0138-23.0805 8.46863-24.1333 5.0354-24.1333 0.732422L-24.1333 0ZM4.59595-20.343C2.88391-21.579 0.723267-22.7051-1.85852-23.7305-4.44031-24.7559-7.56226-25.2686-11.2244-25.2686-17.038-25.2686-21.5607-23.5291-24.82-20.0592-28.0792-16.5894-29.6997-11.6821-29.6997-5.32837L-29.6997 0.0823975C-29.6997 6.26221-28.125 11.087-24.9756 14.5294-21.817 17.9718-17.4866 19.693-11.9934 19.693-6.27137 19.693-1.91345 17.9352 1.07117 14.4104 4.0741 10.8765 5.56641 6.0608 5.56641-0.0823975L5.56641-4.59595-24.1333-4.59595-24.1333-5.32837C-24.1333-10.1715-22.9798-13.8977-20.6726-16.507-18.3472-19.1162-15.1795-20.4163-11.142-20.4163-8.2306-20.4163-5.67627-19.9951-3.46985-19.1345-1.26343-18.2739 0.622559-17.276 2.17896-16.1408Z" fill="#48615D" transform="matrix(1.00077 0 0 -1 1205.87 484.458)"/><path d="M0 0C-15.9577 6.02417-29.9103 14.5477-41.8488 25.5982-53.7781 36.6394-63.2538 49.9329-70.2576 65.4969-77.2706 81.0517-80.777 98.3735-80.777 117.444-80.777 139.279-77.0692 157.855-69.6808 173.163-62.2834 188.471-52.1576 200.958-39.3219 210.617-26.8982 219.965-12.4146 226.85 4.01001 231.381-10.9131 230.86-25.1221 228.891-38.4888 225.247-54.1169 220.99-67.7949 214.298-79.5136 205.188-91.2232 196.069-100.461 184.287-107.208 169.849-113.956 155.411-117.334 137.888-117.334 117.288-117.334 99.2982-114.13 82.9651-107.739 68.2892-101.349 53.6042-92.7064 41.0614-81.8207 30.6427-70.926 20.224-58.2001 12.1765-43.6432 6.50025-29.0772 0.81482-13.7512-2.03247 2.34375-2.03247L4.57764-2.03247 4.57764-1.49231C3.05786-0.979615 1.50147-0.567627 0 0" fill="#BFCCC2" transform="matrix(1.00077 0 0 -1 1096.29 362.111)"/><path d="M0 0-72.8028 198.514-112.573 198.514-24.8566-35.1563 2.83814-35.1563 90.9119 198.514 73.1507 198.514Z" fill="#48615D" transform="matrix(1.00077 0 0 -1 659.511 328.981)"/><path d="M0 0-36.5753 0-36.5753-220.532-51.8006-220.532-51.8006-233.67 112.875-233.67 112.875-219.104 0-219.104Z" fill="#48615D" transform="matrix(1.00077 0 0 -1 79.4997 130.47)"/><path d="M0 0 39.7705 106.897 80.2552 0ZM64.8743 138.501 18.2648 138.501 18.2648 125.354 33.3435 125.354-50.7843-95.1691-35.1563-95.1691-4.61426-12.4329 85.2265-12.4329 116.483-95.1691 158.386-95.1691 64.9842 138.501Z" fill="#48615D" transform="matrix(1.00077 0 0 -1 330.107 268.968)"/><path d="M0 0 39.7797 106.897 80.2552 0ZM64.9842 138.501 64.8743 138.501 18.2648 138.501 18.2648 125.354 33.3435 125.354-50.7843-95.1691-35.1563-95.1691-4.61426-12.4329 85.2265-12.4329 116.483-95.1691 158.386-95.1691Z" fill="#48615D" transform="matrix(1.00077 0 0 -1 1425.98 268.968)"/><path d="M0 0 0-13.1378 12.8998-13.1378 12.8998-220.532 0-220.532 0-233.67 62.3749-233.67 62.3749-220.532 49.4751-220.532 49.4751-13.1378 62.3749-13.1378 62.3749 0Z" fill="#48615D" transform="matrix(1.00077 0 0 -1 844.608 130.47)"/><path d="M0 0C-14.447-18.6676-37.1704-28.006-68.1885-28.006L-76.6205-28.006-76.6205 179.389-66.0462 179.389C-53.2654 179.389-41.4917 176.962-30.716 172.119-19.9494 167.267-10.6567 160.419-2.83814 151.557 4.97132 142.694 11.0046 132.056 15.271 119.65 19.5282 107.245 21.6614 93.5944 21.6614 78.7079 21.6614 44.9067 14.4379 18.6768 0 0M25.7538 166.068C14.0259 175.186 0.347901 181.879-15.271 186.136-30.8991 190.393-47.5891 192.526-65.3412 192.526L-113.205 192.526-113.205-41.1438-56.1127-41.1438C-40.0086-41.1438-24.6826-38.3057-10.1166-32.6203 4.44031-26.9348 17.1662-18.8965 28.0518-8.46863 38.9466 1.94092 47.58 14.4837 53.9795 29.1687 60.3699 43.8446 63.5743 60.1868 63.5743 78.1769 63.5743 98.7763 60.1868 116.29 53.4485 130.737 46.7011 145.175 37.4634 156.958 25.7538 166.068" fill="#48615D" transform="matrix(1.00077 0 0 -1 1232.45 322.996)"/><path d="M2837.61 4396.58 2934.18 4396.58 2934.18 4409.71 2837.61 4409.71Z" fill="#48615D" transform="matrix(1.00077 0 0 -1 -1750.64 4787)"/><path d="M2934.18 4682.82 2837.61 4682.82 2837.61 4669.68 2934.18 4669.68Z" fill="#48615D" transform="matrix(1.00077 0 0 -1 -1750.64 4787)"/><path d="M0 0 12.8723 0 12.8723-9.25599 0-9.25599 0-58.1452-11.1511-58.1452-11.1511-31.3019-65.2222-31.3019-65.2222 0.906373-36.4655 0.906373-36.4655 12.5977-65.4053 12.5977-65.4053 21.8537-25.1312 21.8537-25.1312-8.34962-53.9704-8.34962-53.9704-22.0551-11.1511-22.0551-11.1511 24.8474 0 24.8474Z" fill="#48615D" transform="matrix(1.00077 0 0 -1 1730.44 305.996)"/><path d="M3599.93 4422.86 3588.77 4422.86 3588.77 4505.85 3599.93 4505.85ZM3562.66 4475.38 3543.16 4475.38 3543.16 4458.86 3562.66 4458.86ZM3573.81 4503.13 3573.81 4449.69 3532 4449.69 3532 4502.86 3543.15 4502.86 3543.15 4484.53 3562.66 4484.53 3562.66 4503.13Z" fill="#48615D" transform="matrix(1.00077 0 0 -1 -1750.64 4787)"/><path d="M0 0 12.8723 0 12.8723-9.25599 0-9.25599 0-58.1452-11.1603-58.1452-11.1603-31.3019-64.3158-31.3019-64.3158 21.8537-22.403 21.8537-22.403 12.5977-53.064 12.5977-53.064-22.0551-11.1603-22.0551-11.1603 24.8474-2.03288e-15 24.8474Z" fill="#48615D" transform="matrix(1.00077 0 0 -1 1964.63 305.996)"/><path d="M0 0C0 4.6875-1.08032 8.25806-3.25928 10.73-5.42908 13.2111-8.35877 14.447-12.0667 14.447-13.5681 14.447-15.0696 14.1815-16.5711 13.6505-18.0725 13.1104-19.4184 12.3139-20.636 11.2701-21.8353 10.2081-22.815 8.94471-23.5748 7.47071-24.3256 5.98755-24.7009 4.27552-24.7009 2.34375L-24.7009-10.4096C-24.7009-11.7096-24.3897-12.9547-23.7671-14.1632-23.1537-15.3717-22.284-16.4703-21.1579-17.4317-20.0318-18.4021-18.7042-19.1803-17.1753-19.7754-15.6372-20.3705-13.9435-20.6635-12.0667-20.6635-8.35877-20.6635-5.42908-19.3817-3.25928-16.8274-1.08032-14.2731 0-10.6842 0-6.05164ZM-24.7009-19.693-24.7009-42.1326-30.2674-42.1326-30.2674 18.6493-24.7742 18.6493-24.7742 12.5153C-23.4833 14.7217-21.6705 16.4337-19.3268 17.6331-16.9922 18.8507-14.447 19.455-11.7096 19.455-9.11866 19.455-6.76575 19.0338-4.64173 18.2007-2.50855 17.3676-0.695801 16.1591 0.805665 14.5752 2.31629 12.9822 3.48816 11.0321 4.32129 8.72498 5.15442 6.39954 5.56641 3.77198 5.56641 0.805665L5.56641-6.85731C5.56641-9.81446 5.13611-12.4512 4.27552-14.7675 3.42407-17.0838 2.22473-19.0338 0.686646-20.6177-0.842286-22.2107-2.67334-23.4192-4.79737-24.2523-6.93055-25.0855-9.22852-25.5066-11.7004-25.5066-14.7675-25.5066-17.395-24.9207-19.5648-23.7671-21.7529-22.6135-23.4375-21.2586-24.6094-19.693Z" fill="#FFFFFF" transform="matrix(1.00077 0 0 -1 446.225 3214.95)"/><path d="M0 0C-1.51062 0.595093-3.25928 0.897217-5.25513 0.897217-7.0221 0.897217-8.63343 0.540162-10.0891-0.15564-11.5448-0.860596-12.7808-1.8219-13.797-3.05786-14.8224-4.30298-15.6098-5.78614-16.1499-7.50733-16.6809-9.21937-16.9556-11.1145-16.9556-13.147L-16.9556-37.8479-22.522-37.8479-22.522 5.65796-17.038 5.65796-17.038-2.01416C-16.5527-0.98877-15.9393 0.0366211-15.2161 1.06201-14.4928 2.06909-13.6047 2.99378-12.5519 3.79944-11.5082 4.60511-10.318 5.25513-8.99964 5.73121-7.68128 6.22559-6.18897 6.46363-4.52271 6.46363-3.28675 6.46363-2.16065 6.39039-1.17188 6.25306-0.183106 6.12488 0.778199 5.896 1.69373 5.56641Z" fill="#FFFFFF" transform="matrix(1.00077 0 0 -1 501.399 3201.95)"/><path d="M0 0 0 0.732422C0 5.30091-1.0437 8.79822-3.14026 11.2244-5.23682 13.6414-8.18482 14.8499-11.9843 14.8499-15.8478 14.8499-18.8416 13.5681-20.9564 11.0138-23.0713 8.46863-24.1333 5.0354-24.1333 0.732422L-24.1333 0ZM4.59595-20.343C2.88391-21.579 0.723267-22.7051-1.85852-23.7305-4.44031-24.7467-7.56226-25.2686-11.2244-25.2686-17.0288-25.2686-21.5607-23.5291-24.82-20.0592-28.0792-16.5894-29.6997-11.6821-29.6997-5.32837L-29.6997 0.0823975C-29.6997 6.26221-28.125 11.087-24.9756 14.5294-21.817 17.9718-17.4866 19.7022-11.9843 19.7022-6.27137 19.7022-1.91345 17.9352 1.07117 14.4104 4.0741 10.8765 5.56641 6.0608 5.56641-0.0732422L5.56641-4.59595-24.1333-4.59595-24.1333-5.32837C-24.1333-10.1624-22.9798-13.8977-20.6726-16.507-18.3472-19.1162-15.1795-20.4163-11.1328-20.4163-8.2306-20.4163-5.67627-19.9951-3.46985-19.1345-1.26343-18.2739 0.622559-17.276 2.17896-16.1408Z" fill="#FFFFFF" transform="matrix(1.00077 0 0 -1 554.311 3215.19)"/><path d="M0 0C4.96216 0 8.59681-1.34583 10.8856-4.03748 13.1744-6.72913 14.328-10.3912 14.328-15.0147L14.328-44.3116 8.7616-44.3116 8.7616-16.4612C8.7616-14.6942 8.61512-13.1104 8.31299-11.7096 8.02003-10.3088 7.50733-9.1095 6.79322-8.11158 6.0608-7.11365 5.07203-6.35376 3.8086-5.8136 2.55432-5.27344 0.952149-5.00794-0.97046-5.00794-2.73743-5.00794-4.29383-5.32837-5.63965-5.96924-6.97632-6.61927-8.11158-7.4524-9.05457-8.47779-9.99757-9.49403-10.7208-10.6567-11.2244-11.9476-11.7279-13.2385-12.0117-14.5111-12.0667-15.7471L-12.0667-44.3116-17.6331-44.3116-17.6331-16.4612C-17.6331-14.6942-17.7887-13.1104-18.0817-11.7096-18.3746-10.3088-18.8782-9.1095-19.6106-8.11158-20.3339-7.11365-21.3226-6.35376-22.5861-5.8136-23.8404-5.27344-25.4425-5.00794-27.3651-5.00794-29.1321-5.00794-30.716-5.34668-32.1167-6.01502-33.5083-6.68335-34.671-7.56226-35.6049-8.63343-36.5479-9.71375-37.2528-10.8948-37.7381-12.1857-38.2233-13.4857-38.4705-14.7766-38.4705-16.0584L-38.4705-44.3116-44.0369-44.3116-44.0369-0.805665-38.5437-0.805665-38.6261-6.86646C-38.1409-5.99671-37.5366-5.15442-36.8134-4.32129-36.0901-3.48816-35.2112-2.74658-34.1858-2.09656-33.1604-1.45569-32.0252-0.942994-30.7617-0.567627-29.4983-0.192261-28.0518 2.5411e-16-26.4313 2.5411e-16-22.934 2.5411e-16-20.1142-0.686646-17.9627-2.05994-15.8112-3.42407-14.2456-5.3833-13.2752-7.91932-12.7991-6.99463-12.1582-6.06995-11.38-5.12696-10.6018-4.18396-9.64967-3.33252-8.54188-2.59094-7.44324-1.83106-6.17066-1.2085-4.73328-0.732422-3.30506-0.238037-1.73035 0 0 0" fill="#FFFFFF" transform="matrix(1.00077 0 0 -1 630.85 3195.49)"/><path d="M2422.89 1590.7 2428.46 1590.7 2428.46 1547.2 2422.89 1547.2ZM2422.64 1605.15 2428.7 1605.15 2428.7 1599.02 2422.64 1599.02Z" fill="#FFFFFF" transform="matrix(1.00077 0 0 -1 -1750.64 4787)"/><path d="M0 0C-4.96216 0-8.72498 1.37329-11.2976 4.11988-13.8886 6.86646-15.1795 10.492-15.1795 15.0147L-15.1795 44.1559-9.60389 44.1559-9.60389 16.388C-9.60389 14.8224-9.46656 13.3667-9.17359 11.9843-8.87147 10.611-8.34962 9.41163-7.59888 8.34962-6.84815 7.30591-5.79529 6.49109-4.422 5.896-3.04871 5.30091-1.30005 5.00794 0.851441 5.00794 2.67334 5.00794 4.34876 5.32837 5.86853 5.96924 7.39747 6.62842 8.71583 7.47071 9.81446 8.51441 10.9131 9.56727 11.7737 10.7391 12.3871 12.03 13.0005 13.3209 13.3118 14.6118 13.3118 15.9119L13.3118 44.1559 18.8782 44.1559 18.8782 0.650025 13.4033 0.650025 13.4033 6.70166C12.3779 5.0354 10.7391 3.49732 8.50526 2.10571 6.27137 0.704957 3.43323 0 0 0" fill="#FFFFFF" transform="matrix(1.00077 0 0 -1 723.79 3240.46)"/><path d="M0 0C4.96216 0 8.59681-1.34583 10.8856-4.03748 13.1744-6.72913 14.328-10.3912 14.328-15.0147L14.328-44.3116 8.7616-44.3116 8.7616-16.4612C8.7616-14.6942 8.61512-13.1104 8.31299-11.7096 8.02003-10.3088 7.50733-9.1095 6.79322-8.11158 6.0608-7.11365 5.07203-6.35376 3.8086-5.8136 2.55432-5.27344 0.952149-5.00794-0.97046-5.00794-2.73743-5.00794-4.29383-5.32837-5.63965-5.96924-6.97632-6.61927-8.11158-7.4524-9.05457-8.47779-9.99757-9.49403-10.7208-10.6567-11.2244-11.9476-11.7279-13.2385-12.0117-14.5111-12.0667-15.7471L-12.0667-44.3116-17.6331-44.3116-17.6331-16.4612C-17.6331-14.6942-17.7887-13.1104-18.0817-11.7096-18.3746-10.3088-18.8782-9.1095-19.6106-8.11158-20.3339-7.11365-21.3226-6.35376-22.5861-5.8136-23.8404-5.27344-25.4425-5.00794-27.3651-5.00794-29.1321-5.00794-30.716-5.34668-32.1167-6.01502-33.5083-6.68335-34.671-7.56226-35.6049-8.63343-36.5479-9.71375-37.2528-10.8948-37.7381-12.1857-38.2233-13.4857-38.4705-14.7766-38.4705-16.0584L-38.4705-44.3116-44.0369-44.3116-44.0369-0.805665-38.5437-0.805665-38.6261-6.86646C-38.1409-5.99671-37.5366-5.15442-36.8134-4.32129-36.0901-3.48816-35.2112-2.74658-34.1858-2.09656-33.1604-1.45569-32.0252-0.942994-30.7617-0.567627-29.4983-0.192261-28.0518 2.5411e-16-26.4404 2.5411e-16-22.934 2.5411e-16-20.1142-0.686646-17.9627-2.05994-15.8112-3.42407-14.2456-5.3833-13.2752-7.91932-12.7991-6.99463-12.1582-6.06995-11.38-5.12696-10.6018-4.18396-9.64967-3.33252-8.54188-2.59094-7.44324-1.83106-6.17066-1.2085-4.73328-0.732422-3.30506-0.238037-1.73035 0 0 0" fill="#FFFFFF" transform="matrix(1.00077 0 0 -1 815.838 3195.49)"/><path d="M2641.23 1608.22 2646.79 1608.22 2646.79 1547.2 2641.23 1547.2Z" fill="#FFFFFF" transform="matrix(1.00077 0 0 -1 -1750.64 4787)"/><path d="M0 0C4.03748 0 7.20521 1.25427 9.48487 3.75366 11.7737 6.25306 12.9181 10.0891 12.9181 15.2527L12.9181 20.0134C12.9181 25.177 11.7737 29.0131 9.48487 31.5216 7.20521 34.021 4.03748 35.2661 0 35.2661-4.02832 35.2661-7.19605 34.021-9.47571 31.5216-11.7645 29.0131-12.9089 25.177-12.9089 20.0134L-12.9089 15.2527C-12.9089 10.0891-11.7645 6.25306-9.47571 3.75366-7.19605 1.25427-4.02832 0 0 0M0 40.1184C5.86853 40.1184 10.4187 38.3881 13.6505 34.9549 16.8732 31.5033 18.4845 26.6327 18.4845 20.343L18.4845 14.9323C18.4845 8.63343 16.8732 3.76282 13.6505 0.32959 10.4187-3.12195 5.86853-4.84314 0-4.84314-5.85938-4.84314-10.4096-3.12195-13.6414 0.32959-16.8732 3.76282-18.4754 8.63343-18.4754 14.9323L-18.4754 20.343C-18.4754 26.6876-16.8732 31.5766-13.6414 34.9915-10.4096 38.4064-5.85938 40.1184 2.03288e-15 40.1184" fill="#FFFFFF" transform="matrix(1.00077 0 0 -1 943.67 3235.61)"/><path d="M0 0C-4.96216 0-8.72498 1.37329-11.2976 4.11988-13.8886 6.86646-15.1795 10.492-15.1795 15.0147L-15.1795 44.1559-9.60389 44.1559-9.60389 16.388C-9.60389 14.8224-9.4574 13.3667-9.17359 11.9843-8.87147 10.611-8.34962 9.41163-7.59888 8.34962-6.84815 7.30591-5.79529 6.49109-4.422 5.896-3.04871 5.30091-1.30005 5.00794 0.851441 5.00794 2.67334 5.00794 4.34876 5.32837 5.86853 5.96924 7.39747 6.62842 8.71583 7.47071 9.81446 8.51441 10.9131 9.56727 11.7737 10.7391 12.3871 12.03 13.0005 13.3209 13.3118 14.6118 13.3118 15.9119L13.3118 44.1559 18.8782 44.1559 18.8782 0.650025 13.4033 0.650025 13.4033 6.70166C12.3779 5.0354 10.7391 3.49732 8.50526 2.10571 6.27137 0.704957 3.44239 0 0 0" fill="#FFFFFF" transform="matrix(1.00077 0 0 -1 1004.1 3240.46)"/><path d="M0 0C4.99878 0 8.86231-1.35498 11.5723-4.0741 14.3005-6.79322 15.6555-10.4462 15.6555-15.0147L15.6555-44.3116 10.0891-44.3116 10.0891-16.388C10.0891-14.8224 9.92432-13.3667 9.60389-11.9843 9.28345-10.611 8.70667-9.40247 7.87354-8.34962 7.04041-7.30591 5.91431-6.49109 4.49524-5.896 3.07617-5.30091 1.29089-5.00794-0.851441-5.00794-2.67334-5.00794-4.34876-5.34668-5.87769-6.01502-7.40662-6.68335-8.70667-7.56226-9.77784-8.63343-10.8582-9.71375-11.7004-10.8948-12.3139-12.1857-12.9364-13.4857-13.2477-14.7766-13.2477-16.0584L-13.2477-44.3116-18.8141-44.3116-18.8141-0.805665-13.3209-0.805665-13.3209-6.86646C-12.8357-6.0608-12.1948-5.23682-11.3892-4.40369-10.5835-3.5614-9.60389-2.82898-8.48694-2.17896-7.35169-1.53809-6.08826-1.01624-4.6875-0.613404-3.28675-0.210571-1.73035 0 0 0" fill="#FFFFFF" transform="matrix(1.00077 0 0 -1 1070.9 3195.49)"/><path d="M0 0C0-4.6875 1.08948-8.28553 3.2959-10.8215 5.49317-13.3484 8.4137-14.6118 12.0667-14.6118 13.8336-14.6118 15.4907-14.3829 17.0197-13.9252 18.5394-13.4674 19.867-12.7716 20.9931-11.8286 22.1192-10.8856 23.0164-9.7046 23.6847-8.27637 24.3622-6.84815 24.7009-5.16358 24.7009-3.23181L24.7009 9.04542C24.7009 10.3272 24.3897 11.6089 23.7671 12.8723 23.1537 14.1358 22.284 15.2985 21.1579 16.3422 20.0318 17.395 18.6951 18.2373 17.1387 18.8873 15.5823 19.5374 13.8886 19.8486 12.0667 19.8486 8.35877 19.8486 5.41993 18.5761 3.25928 16.0217 1.08032 13.4674 0 9.87855 0 5.24598ZM24.7009-13.0829 24.6185-13.0829C23.3734-15.2893 21.5607-16.9006 19.162-17.9169 16.7725-18.9423 14.3097-19.455 11.7828-19.455 9.24683-19.455 6.9397-19.0338 4.84314-18.2007 2.73743-17.3676 0.915528-16.1591-0.650025-14.5661-2.20642-12.9822-3.42407-11.0321-4.27552-8.72498-5.13611-6.39954-5.56641-3.77198-5.56641-0.805665L-5.56641 6.05164C-5.56641 9.01795-5.13611 11.6455-4.27552 13.9618-3.42407 16.2781-2.22473 18.2282-0.686646 19.8212 0.842286 21.3959 2.67334 22.6135 4.79737 23.4467 6.93055 24.2798 9.21937 24.7009 11.7004 24.7009 14.9323 24.7009 17.6331 24.0784 19.812 22.8424 21.991 21.6065 23.6389 20.1782 24.7742 18.5669L24.7742 23.8953 30.2674 23.8953 30.2674-18.8873C30.2674-25.0763 28.6652-29.7455 25.4608-32.8858 22.2565-36.0443 17.9443-37.619 12.5061-37.619 9.43909-37.619 6.71082-37.2162 4.31214-36.4014 1.91345-35.5957-0.192261-34.4971-2.02332-33.0963L0.48523-28.8208C1.50147-29.5166 2.46277-30.0934 3.3783-30.5512 4.29383-31.0089 5.21851-31.3843 6.15235-31.6864 7.09534-31.9794 8.07496-32.1808 9.09119-32.2907 10.1074-32.3914 11.2335-32.4555 12.4695-32.4555 16.4887-32.4555 19.5374-31.3568 21.5973-29.1779 23.6572-26.9989 24.7009-23.6298 24.7009-19.0521Z" fill="#FFFFFF" transform="matrix(1.00077 0 0 -1 1118.8 3220.19)"/><path d="M0 0 0 0.732422C0 5.30091-1.05286 8.79822-3.14026 11.2244-5.23682 13.6414-8.18482 14.8499-11.9934 14.8499-15.8478 14.8499-18.8416 13.5681-20.9564 11.0138-23.0805 8.46863-24.1333 5.0354-24.1333 0.732422L-24.1333 0ZM4.59595-20.343C2.88391-21.579 0.723267-22.7051-1.85852-23.7305-4.44031-24.7467-7.56226-25.2686-11.2244-25.2686-17.038-25.2686-21.5607-23.5291-24.82-20.0592-28.0792-16.5894-29.6997-11.6821-29.6997-5.32837L-29.6997 0.0823975C-29.6997 6.26221-28.125 11.087-24.9756 14.5294-21.817 17.9718-17.4866 19.7022-11.9934 19.7022-6.27137 19.7022-1.91345 17.9352 1.07117 14.4104 4.0741 10.8765 5.56641 6.0608 5.56641-0.0732422L5.56641-4.59595-24.1333-4.59595-24.1333-5.32837C-24.1333-10.1624-22.9798-13.8977-20.6726-16.507-18.3472-19.1162-15.1795-20.4163-11.142-20.4163-8.2306-20.4163-5.67627-19.9951-3.46985-19.1345-1.26343-18.2739 0.622559-17.276 2.17896-16.1408Z" fill="#FFFFFF" transform="matrix(1.00077 0 0 -1 1205.87 3215.19)"/><path d="M0 0C-15.9577 6.02417-29.9103 14.5477-41.8488 25.5982-53.7781 36.6394-63.2538 49.9329-70.2576 65.4969-77.2706 81.0609-80.777 98.3735-80.777 117.444-80.777 139.279-77.0692 157.855-69.6808 173.163-62.2834 188.471-52.1576 200.958-39.3219 210.617-26.8982 219.965-12.4146 226.85 4.01001 231.381-10.9131 230.86-25.1221 228.891-38.4888 225.247-54.1169 220.99-67.7949 214.298-79.5136 205.188-91.2232 196.069-100.461 184.287-107.208 169.849-113.956 155.411-117.334 137.888-117.334 117.288-117.334 99.2982-114.13 82.9651-107.739 68.2892-101.349 53.6042-92.7064 41.0614-81.8207 30.6427-70.926 20.224-58.2001 12.1765-43.6432 6.50025-29.0772 0.81482-13.7512-2.03247 2.34375-2.03247L4.57764-2.03247 4.57764-1.49231C3.05786-0.979615 1.50147-0.567627 0 0" fill="#7D8581" transform="matrix(1.00077 0 0 -1 1096.29 3092.84)"/><path d="M0 0-72.8028 198.514-112.573 198.514-24.8566-35.1563 2.83814-35.1563 90.9119 198.514 73.1507 198.514Z" fill="#FFFFFF" transform="matrix(1.00077 0 0 -1 659.511 3059.71)"/><path d="M0 0-36.5753 0-36.5753-220.532-51.8006-220.532-51.8006-233.67 112.875-233.67 112.875-219.104 0-219.104Z" fill="#FFFFFF" transform="matrix(1.00077 0 0 -1 79.4997 2861.2)"/><path d="M0 0 39.7705 106.897 80.2552 0ZM64.8743 138.501 18.2648 138.501 18.2648 125.354 33.3435 125.354-50.7843-95.1691-35.1563-95.1691-4.61426-12.4237 85.2265-12.4237 116.483-95.1691 158.386-95.1691 64.9842 138.501Z" fill="#FFFFFF" transform="matrix(1.00077 0 0 -1 330.107 2999.7)"/><path d="M0 0 39.7797 106.897 80.2552 0ZM64.9842 138.501 64.8743 138.501 18.2648 138.501 18.2648 125.354 33.3435 125.354-50.7843-95.1691-35.1563-95.1691-4.61426-12.4237 85.2265-12.4237 116.483-95.1691 158.386-95.1691Z" fill="#FFFFFF" transform="matrix(1.00077 0 0 -1 1425.98 2999.7)"/><path d="M0 0 0-13.1378 12.8998-13.1378 12.8998-220.532 0-220.532 0-233.67 62.3749-233.67 62.3749-220.532 49.4751-220.532 49.4751-13.1378 62.3749-13.1378 62.3749 0Z" fill="#FFFFFF" transform="matrix(1.00077 0 0 -1 844.608 2861.2)"/><path d="M0 0C-14.447-18.6676-37.1704-28.006-68.1885-28.006L-76.6205-28.006-76.6205 179.389-66.0462 179.389C-53.2654 179.389-41.4917 176.962-30.716 172.119-19.9494 167.267-10.6567 160.419-2.83814 151.557 4.97132 142.694 11.0046 132.056 15.271 119.65 19.5282 107.245 21.6614 93.5944 21.6614 78.7079 21.6614 44.9067 14.4379 18.6768 0 0M25.7538 166.068C14.0259 175.186 0.347901 181.879-15.271 186.136-30.8991 190.393-47.5891 192.526-65.3412 192.526L-113.205 192.526-113.205-41.1438-56.1127-41.1438C-40.0086-41.1438-24.6826-38.3057-10.1166-32.6203 4.44031-26.9348 17.1662-18.8965 28.0518-8.46863 38.9466 1.94092 47.58 14.4837 53.9795 29.1687 60.3699 43.8446 63.5743 60.1868 63.5743 78.1769 63.5743 98.7763 60.1868 116.29 53.4485 130.737 46.7011 145.175 37.4634 156.958 25.7538 166.068" fill="#FFFFFF" transform="matrix(1.00077 0 0 -1 1232.45 3053.73)"/><path d="M2837.61 1665.84 2934.18 1665.84 2934.18 1678.98 2837.61 1678.98Z" fill="#FFFFFF" transform="matrix(1.00077 0 0 -1 -1750.64 4787)"/><path d="M2934.18 1952.08 2837.61 1952.08 2837.61 1938.94 2934.18 1938.94Z" fill="#FFFFFF" transform="matrix(1.00077 0 0 -1 -1750.64 4787)"/><path d="M0 0 12.8723 0 12.8723-9.25599 0-9.25599 0-58.1452-11.1511-58.1452-11.1511-31.3019-65.2222-31.3019-65.2222 0.906373-36.4655 0.906373-36.4655 12.5977-65.4053 12.5977-65.4053 21.8537-25.1312 21.8537-25.1312-8.34962-53.9704-8.34962-53.9704-22.0459-11.1511-22.0459-11.1511 24.8474 0 24.8474Z" fill="#FFFFFF" transform="matrix(1.00077 0 0 -1 1730.44 3036.73)"/><path d="M3599.93 1692.12 3588.77 1692.12 3588.77 1775.12 3599.93 1775.12ZM3562.66 1744.64 3543.16 1744.64 3543.16 1728.12 3562.66 1728.12ZM3573.81 1772.4 3573.81 1718.97 3532 1718.97 3532 1772.12 3543.15 1772.12 3543.15 1753.8 3562.66 1753.8 3562.66 1772.4Z" fill="#FFFFFF" transform="matrix(1.00077 0 0 -1 -1750.64 4787)"/><path d="M0 0 12.8723 0 12.8723-9.25599 0-9.25599 0-58.1452-11.1603-58.1452-11.1603-31.3019-64.3158-31.3019-64.3158 21.8537-22.403 21.8537-22.403 12.5977-53.064 12.5977-53.064-22.0459-11.1603-22.0459-11.1603 24.8474-2.03288e-15 24.8474Z" fill="#FFFFFF" transform="matrix(1.00077 0 0 -1 1964.63 3036.73)"/></g></svg>