<svg width="967" height="207" xmlns="http://www.w3.org/2000/svg" xmlns:xlink="http://www.w3.org/1999/xlink" xml:space="preserve" overflow="hidden"><defs><clipPath id="clip0"><rect x="107" y="153" width="967" height="207"/></clipPath></defs><g clip-path="url(#clip0)" transform="translate(-107 -153)"><path d="M0.0105746 0 3147.42 0 3147.42 4299.31 0.0105746 4299.31Z" fill="#F6F6F6" transform="matrix(1 0 0 -1.00161 -876.099 1304.22)"/><path d="M2997.55 182.011 149.885 182.011 149.885 3431.8 2997.55 3431.8Z" fill="#FFFFFF" transform="matrix(1 0 0 -1.00161 -876.099 1304.22)"/><path d="M0 0-66.7365 0-66.7365 89.8632-44.4029 89.8632-44.4029 19.69 0 19.69Z" fill="#332D2B" transform="matrix(1 0 0 -1.00161 204.63 -2372.25)"/><path d="M0 0C0 8.32223-5.81605 15.0636-14.4026 15.0636-23.1267 15.0636-28.9428 8.32223-28.9428 0-28.9428-8.59189-23.1267-15.4654-14.4026-15.4654-5.81605-15.4654 0-8.59189 0 0M20.2187 0.126896C20.2187-19.4309 5.68386-33.9657-14.5348-33.9657-34.7535-33.9657-49.2936-19.4309-49.2936 0.126896-49.2936 19.4256-34.7535 33.5639-14.5348 33.5639 5.68386 33.5639 20.2187 19.4256 20.2187 0.126896" fill="#332D2B" transform="matrix(1 0 0 -1.00161 260.945 -2404.29)"/><path d="M0 0 0 17.7125C-3.96549 22.2014-8.5866 23.6607-13.213 23.6607-21.9371 23.6607-28.2818 17.4481-28.2818 8.19534-28.2818 1.19493-21.9371-5.94294-13.213-5.94294-8.5866-5.94294-3.96549-4.49422 0 0M21.4083-24.1789C21.4083-44.2707 7.13788-55.8975-12.9486-55.8975-32.3795-55.8975-46.5178-44.7994-47.5753-28.1444L-26.4313-28.1444C-25.3738-34.0926-20.8796-37.7884-12.9486-37.7884-5.68386-37.7884-4.69608e-15-33.2995-4.69608e-15-24.5754L-4.69608e-15-18.5003C-4.75858-21.2709-10.4424-22.9945-17.4429-22.9945-34.7535-22.9945-49.2936-9.12062-49.2936 8.19534-49.2936 27.7531-34.7535 41.0983-17.4429 41.0983-10.4424 41.0983-4.75858 39.253-2.34804e-15 36.345L-2.34804e-15 38.8565 21.4083 38.8565Z" fill="#332D2B" transform="matrix(1 0 0 -1.00161 338.669 -2397.53)"/><path d="M0 0C0 8.32223-5.81605 15.0636-14.4026 15.0636-23.1267 15.0636-28.9428 8.32223-28.9428 0-28.9428-8.59189-23.1267-15.4654-14.4026-15.4654-5.81605-15.4654 0-8.59189 0 0M20.2187 0.126896C20.2187-19.4309 5.68386-33.9657-14.5348-33.9657-34.7535-33.9657-49.2936-19.4309-49.2936 0.126896-49.2936 19.4256-34.7535 33.5639-14.5348 33.5639 5.68386 33.5639 20.2187 19.4256 20.2187 0.126896" fill="#332D2B" transform="matrix(1 0 0 -1.00161 420.754 -2404.29)"/><path d="M0 0C14.5348 0 25.7704 10.839 25.7704 25.1095 25.7704 38.9834 14.5348 49.6902 0 49.6902L-13.8739 49.6902-13.8739 0ZM0 69.7767C28.1497 69.7767 48.4953 51.4086 48.4953 25.1095 48.4953-1.58619 28.1497-20.0865 0-20.0865L-36.2128-20.0865-36.2128 69.7767Z" fill="#332D2B" transform="matrix(1 0 0 -1.00161 523.594 -2392.37)"/><path d="M0 0 26.1669 0C24.9773 7.00569 20.3509 10.7015 13.4827 10.7015 6.21259 10.7015 1.58619 6.47696 0 0M45.8569-12.1555 45.9891-12.5521 0.264366-12.5521C1.98274-18.3681 6.47696-22.8623 14.6723-22.8623 19.1665-22.8623 22.598-21.144 24.4485-18.2359L45.5925-18.2359C42.5523-31.4489 30.2646-39.7765 14.4079-39.7765-6.60386-39.7765-20.6152-25.7704-20.6152-6.21259-20.6152 13.2183-7.00569 27.2191 13.4827 27.2191 32.1152 27.2191 46.2534 14.4079 46.2534-4.89077 46.2534-7.26477 46.2534-9.78153 45.8569-12.1555" fill="#332D2B" transform="matrix(1 0 0 -1.00161 600.13 -2410.64)"/><path d="M0 0C0.92528-5.55168 5.55168-8.06316 12.293-8.06316 17.9716-8.06316 21.4083-6.34478 21.4083-3.56894 21.4083-1.45401 19.4256 0.264366 15.201 0.92528L2.24711 3.17239C-8.85097 5.01766-16.5176 11.2303-16.5176 22.4658-16.5176 35.9432-5.02295 43.8741 12.0234 43.8741 25.6382 43.8741 41.0983 38.5868 42.0236 21.6727L22.9945 21.6727C22.598 26.5582 18.1038 28.8053 12.1555 28.8053 6.60914 28.8053 4.09767 26.6904 4.09767 24.1789 4.09767 22.0693 5.68386 20.0865 10.7015 19.1612L22.7302 17.1785C34.7535 14.9314 42.6845 9.12062 42.6845-2.2524 42.6845-17.0516 29.3393-23.9198 12.6843-23.9198-4.09767-23.9198-17.7072-16.9141-19.029 0.126896Z" fill="#332D2B" transform="matrix(1 0 0 -1.00161 672.436 -2394.23)"/><path d="M1624.67 3670.57 1603.26 3670.57 1603.26 3734.66 1624.67 3734.66ZM1601.28 3756.73C1601.28 3763.74 1606.83 3768.89 1613.84 3768.89 1620.7 3768.89 1626.39 3763.74 1626.39 3756.73 1626.39 3749.86 1620.7 3744.71 1613.84 3744.71 1606.83 3744.71 1601.28 3749.86 1601.28 3756.73" fill="#332D2B" transform="matrix(1 0 0 -1.00161 -876.099 1304.22)"/><path d="M0 0 0 17.7125C-3.96549 22.2014-8.5866 23.6607-13.213 23.6607-21.9371 23.6607-28.2818 17.4481-28.2818 8.19534-28.2818 1.19493-21.9371-5.94294-13.213-5.94294-8.5866-5.94294-3.96549-4.49422 0 0M21.4083-24.1789C21.4083-44.2707 7.13788-55.8975-12.9539-55.8975-32.3742-55.8975-46.5178-44.7994-47.5753-28.1444L-26.4313-28.1444C-25.3738-34.0926-20.8796-37.7884-12.9539-37.7884-5.68386-37.7884 7.04412e-15-33.2995 7.04412e-15-24.5754L7.04412e-15-18.5003C-4.75858-21.2709-10.4424-22.9945-17.4429-22.9945-34.7535-22.9945-49.2936-9.12062-49.2936 8.19534-49.2936 27.7531-34.7535 41.0983-17.4429 41.0983-10.4424 41.0983-4.75858 39.253 7.04412e-15 36.345L7.04412e-15 38.8565 21.4083 38.8565Z" fill="#332D2B" transform="matrix(1 0 0 -1.00161 810.425 -2397.53)"/><path d="M0 0 0-36.6041-21.5405-36.6041-21.5405-3.43147C-21.5405 5.68386-26.1669 10.0459-33.1673 10.0459-37.1328 10.0459-41.3627 7.80408-45.0638 3.56894L-45.0638-36.6041-66.4721-36.6041-66.4721 27.4887-45.0638 27.4887-45.0638 23.1267C-39.9087 27.2244-34.2301 29.4715-27.3566 29.4715-11.1034 29.4715 0 18.2359 0 0" fill="#332D2B" transform="matrix(1 0 0 -1.00161 912.993 -2408.92)"/><path d="M0 0 38.5868 0 38.5868-19.4309 0-19.4309 0-51.1442-22.3336-51.1442-22.3336 38.719 44.6672 38.719 44.6672 19.029 0 19.029Z" fill="#332D2B" transform="matrix(1 0 0 -1.00161 983.587 -2423.48)"/><path d="M1935.69 3670.57 1914.28 3670.57 1914.28 3734.66 1935.69 3734.66ZM1912.3 3756.73C1912.3 3763.74 1917.85 3768.89 1924.85 3768.89 1931.73 3768.89 1937.41 3763.74 1937.41 3756.73 1937.41 3749.86 1931.73 3744.71 1924.85 3744.71 1917.85 3744.71 1912.3 3749.86 1912.3 3756.73" fill="#332D2B" transform="matrix(1 0 0 -1.00161 -876.099 1304.22)"/><path d="M0 0 0-36.6041-21.5405-36.6041-21.5405-3.43147C-21.5405 5.68386-26.1669 10.0459-33.1673 10.0459-37.1328 10.0459-41.3627 7.80408-45.0638 3.56894L-45.0638-36.6041-66.4721-36.6041-66.4721 27.4887-45.0638 27.4887-45.0638 23.1267C-39.9087 27.2244-34.2301 29.4715-27.3566 29.4715-11.1034 29.4715 0 18.2359 0 0" fill="#332D2B" transform="matrix(1 0 0 -1.00161 1141 -2408.92)"/><path d="M0 0 0 19.8221C-3.9602 24.4485-8.5866 25.8973-13.3452 25.8973-22.0693 25.8973-28.414 18.7647-28.414 9.90843-28.414 1.05218-22.0693-5.94823-13.3452-5.94823-8.5866-5.94823-3.9602-4.6264-2.34804e-15-2.34804e-15M21.4083-22.2014 0-22.2014 0-18.6325C-4.7533-21.678-10.5693-23.5233-17.575-23.5233-34.8857-23.5233-49.4258-9.12062-49.4258 9.90843-49.4258 29.0697-34.8857 43.3401-17.575 43.3401-10.5693 43.3401-4.7533 41.4948 4.69608e-15 38.4546L4.69608e-15 41.8914 21.4083 41.8914Z" fill="#332D2B" transform="matrix(1 0 0 -1.00161 1200.49 -2394.49)"/><path d="M2133.96 3670.57 2112.55 3670.57 2112.55 3764.4 2133.96 3764.4Z" fill="#332D2B" transform="matrix(1 0 0 -1.00161 -876.099 1304.22)"/><path d="M0 0C0 2.22067-0.750799 3.85445-2.24711 4.90663-3.74871 5.96938-5.9588 6.49811-8.89326 6.49811L-13.2289 6.49811-13.2289-7.05328C-12.5521-7.11673-11.8171-7.16431-11.0293-7.19604-10.2362-7.22776-9.35855-7.23833-8.38568-7.23833-5.7526-7.23833-3.69055-6.59857-2.21538-5.32961-0.740224-4.05008 0-2.27355 0 0M-2.21538 18.3628C-2.21538 19.1136-2.34228 19.838-2.59078 20.5201-2.84986 21.2127-3.26227 21.8207-3.84388 22.3495-4.42548 22.8729-5.17099 23.2853-6.09099 23.5973-7.01098 23.8987-8.13189 24.052-9.45901 24.052-10.2838 24.052-10.9976 24.0414-11.5951 24.0203-12.1978 23.9991-12.7424 23.9674-13.2289 23.9251L-13.2289 11.4629-10.6328 11.4629C-7.88867 11.4629-5.80547 12.0498-4.36732 13.2289-2.93446 14.4185-2.21538 16.121-2.21538 18.3628M6.32892 0.195631C6.32892-1.64435 6.03283-3.31515 5.42479-4.83261 4.82203-6.36064 3.88089-7.66132 2.61193-8.75579 1.3324-9.86084-0.290802-10.7068-2.26297-11.3307-4.23514-11.9388-6.59328-12.2401-9.3374-12.2401-10.0247-12.2401-10.839-12.2296-11.7537-12.1978-12.6684-12.1661-13.599-12.1238-14.5401-12.0709-15.4813-12.0181-16.3801-11.9493-17.2472-11.8647-18.1143-11.7854-18.844-11.6903-19.4626-11.6057L-19.4626 28.7101C-18.2148 28.8106-16.7132 28.8846-14.9525 28.9375-13.1866 28.9956-11.3783 29.0168-9.52245 29.0168-7.3758 29.0168-5.44593 28.7894-3.74871 28.3347-2.05677 27.88-0.618616 27.2297 0.555168 26.3626 1.72366 25.4954 2.61193 24.4327 3.22526 23.1637 3.84388 21.9053 4.14525 20.446 4.14525 18.7964 4.14525 17.7231 3.99721 16.7185 3.70112 15.7773 3.41032 14.8415 2.99791 13.9849 2.48504 13.1971 1.96688 12.4146 1.35355 11.722 0.629191 11.1139-0.084597 10.5006-0.86712 9.99831-1.7078 9.59119-0.586892 9.31625 0.459996 8.90913 1.43815 8.37511 2.42159 7.8358 3.27285 7.16431 4.0025 6.38179 4.73215 5.58869 5.29789 4.67927 5.7103 3.64296 6.12271 2.61193 6.32892 1.45401 6.32892 0.195631" fill="#332D2B" transform="matrix(1 0 0 -1.00161 606.128 -2665.87)"/><path d="M0 0C0 1.96159-0.703213 3.38917-2.10435 4.28272-3.51078 5.18157-5.668 5.6257-8.58131 5.6257L-11.9282 5.6257-11.9282-6.86822-8.89326-6.86822C-6.02225-6.86822-3.8333-6.27076-2.29469-5.04939-0.766661-3.84388 0-2.15722 0 0M9.64406-30.0002 2.30527-30.0002-9.08889-11.9282-11.9282-11.9282-11.9282-30.0002-18.1725-30.0002-18.1725 10.9447-8.89326 10.9447C-6.72018 10.9447-4.70042 10.7703-2.81814 10.4213-0.941142 10.0776 0.692638 9.49073 2.07791 8.65533 3.44733 7.81465 4.53123 6.7096 5.32961 5.35076 6.12271 3.97606 6.51397 2.2524 6.51397 0.185056 6.51397-1.3324 6.24961-2.71768 5.7103-3.95491 5.17628-5.20272 4.46249-6.2919 3.59537-7.21719 2.71768-8.14775 1.70252-8.9197 0.565743-9.5436-0.565743-10.1622-1.74481-10.6169-2.94503-10.8866Z" fill="#332D2B" transform="matrix(1 0 0 -1.00161 651.561 -2683.85)"/><path d="M0 0C-0.105746 0.301377-0.227355 0.724362-0.391261 1.27953-0.544593 1.83999-0.682064 2.42688-0.782523 3.03492L-0.909418 3.03492C-1.00988 2.38458-1.14735 1.77654-1.31125 1.21608-1.46459 0.660914-1.62321 0.185056-1.76596-0.185056L-6.73075-13.9215 5.19214-13.9215ZM18.3311-31.1053 11.648-31.1053 7.06385-19.3621-8.69763-19.3621-12.9698-31.1053-19.6424-31.1053-3.75928 9.83969 2.2524 9.83969Z" fill="#332D2B" transform="matrix(1 0 0 -1.00161 694.954 -2684.96)"/><path d="M0 0-6.10156 0-26.1352 26.5793C-26.2832 26.7485-26.5317 27.0869-26.8807 27.6051-27.2297 28.1179-27.6051 28.689-27.9858 29.297-28.377 29.9156-28.7471 30.5131-29.112 31.1053-29.4715 31.6922-29.7306 32.1469-29.9051 32.4694L-29.9051 0-35.6576 0-35.6576 40.945-29.112 40.945-9.99831 15.2856C-9.68636 14.8415-9.31625 14.3022-8.89326 13.6836-8.47028 13.065-8.05258 12.4358-7.66132 11.7854-7.25948 11.1404-6.8788 10.5323-6.53512 9.95601-6.18616 9.36383-5.91651 8.90384-5.73145 8.53901L-5.73145 40.945 0 40.945Z" fill="#332D2B" transform="matrix(1 0 0 -1.00161 767.727 -2653.8)"/><path d="M0 0C0 2.51147-0.391261 4.6687-1.18965 6.48754-1.98274 8.30108-3.10894 9.80268-4.57353 10.9765-6.0434 12.1661-7.82523 13.0332-9.95601 13.5884-12.0709 14.1489-14.4555 14.4291-17.1203 14.4291L-21.9635 14.4291-21.9635-15.9465-17.6914-15.9465C-14.9843-15.9465-12.5468-15.5711-10.3684-14.8309-8.17948-14.0748-6.31834-13.0121-4.77973-11.6268-3.24112-10.2415-2.05677-8.57074-1.22666-6.59857-0.412411-4.6264 0-2.42688 0 0M6.42409 0.0634478C6.42409-3.11952 5.8372-6.02225 4.6687-8.64476 3.5002-11.2567 1.86113-13.4985-0.259078-15.3649-2.36343-17.2366-4.88548-18.6695-7.81465-19.6847-10.7491-20.6946-13.9744-21.2021-17.4957-21.2021L-28.192-21.2021-28.192 19.7428-16.9881 19.7428C-13.2817 19.7428-9.97716 19.3304-7.07443 18.495-4.17169 17.6596-1.72366 16.4224 0.290802 14.7569 2.29469 13.1073 3.81215 11.0505 4.85375 8.59189 5.89536 6.13329 6.42409 3.294 6.42409 0.0634478" fill="#332D2B" transform="matrix(1 0 0 -1.00161 820.145 -2675.04)"/><path d="M1731.04 3951.67 1724.81 3951.67 1724.81 3992.61 1731.04 3992.61Z" fill="#332D2B" transform="matrix(1 0 0 -1.00161 -876.099 1304.22)"/><path d="M0 0C0 2.49033-0.269653 4.72157-0.814246 6.69374-1.36413 8.66591-2.17837 10.3367-3.2517 11.7114-4.32502 13.0861-5.65743 14.1277-7.23833 14.8626-8.81924 15.5817-10.6487 15.9571-12.7107 15.9571-14.6934 15.9571-16.4911 15.5606-18.1143 14.7992-19.7217 14.022-21.0964 12.9381-22.2437 11.5581-23.3805 10.1622-24.2582 8.49143-24.8768 6.53512-25.506 4.5841-25.818 2.42688-25.818 0.0634478-25.818-2.29469-25.5166-4.45192-24.9297-6.39236-24.3428-8.33281-23.4915-9.98774-22.3759-11.3572-21.2709-12.7319-19.9438-13.7946-18.3628-14.5507-16.7925-15.3121-15.0371-15.698-13.0967-15.698-11.0293-15.698-9.17878-15.3332-7.56086-14.6353-5.93765-13.9215-4.56295-12.9063-3.43675-11.5686-2.32642-10.2257-1.46459-8.58131-0.877694-6.63029-0.290802-4.67927 0-2.46918 0 0M6.39236 0.671489C6.39236-2.64366 5.94823-5.63628 5.04939-8.30108 4.15054-10.9765 2.87101-13.2394 1.18965-15.1059-0.486433-16.9776-2.53262-18.4104-4.93835-19.415-7.33351-20.4143-10.0565-20.9113-13.0967-20.9113-16.0047-20.9113-18.6378-20.4249-21.0065-19.4467-23.3699-18.4633-25.3844-17.0727-27.0446-15.2645-28.7207-13.4668-30.0002-11.299-30.9096-8.75579-31.8191-6.22846-32.2738-3.41561-32.2738-0.311952-32.2738 2.93446-31.8296 5.88478-30.9308 8.52844-30.0319 11.1721-28.7313 13.4351-27.0129 15.3068-25.3104 17.1732-23.2272 18.6113-20.7686 19.6212-18.31 20.6311-15.5236 21.1387-12.404 21.1387-9.55418 21.1387-6.96868 20.6417-4.64755 19.653-2.32642 18.6589-0.348963 17.2684 1.2901 15.4601 2.92389 13.6518 4.18227 11.4946 5.07053 8.98315 5.9588 6.47696 6.39236 3.70641 6.39236 0.671489" fill="#332D2B" transform="matrix(1 0 0 -1.00161 909.379 -2674.18)"/><path d="M0 0C-12.753 0-23.5444 8.39626-27.1662 19.949L-13.5408 19.949-8.40683 19.949 27.1715 19.949C23.5444 8.39626 12.7583 0 0 0M2.73883 59.44 2.87101 59.44 28.3876 59.44C28.414 58.943 28.4616 58.4618 28.4616 57.9543L28.4616 28.4616C28.4616 27.2191 28.3559 26.0136 28.2025 24.8134L2.73883 24.8134ZM-28.4616 28.4616-28.4616 40.4215-7.1273 24.8134-8.40683 24.8134-13.5408 24.8134-28.2025 24.8134C-28.3559 26.0136-28.4616 27.2191-28.4616 28.4616M-2.12021 40.7811-2.12021 27.1821-20.721 40.7811ZM-28.4616 57.9543C-28.4616 58.4618-28.414 58.943-28.3876 59.44L-2.2524 59.44-2.12021 59.44-2.12021 45.6454-28.4616 45.6454ZM0 86.4159C13.5302 86.4159 24.8345 76.9674 27.7214 64.3043L2.87101 64.3043-2.2524 64.3043-27.7214 64.3043C-24.8292 76.9674-13.5302 86.4159 0 86.4159M0 91.2802C-18.3734 91.2802-33.3259 76.3277-33.3259 57.9543L-33.3259 28.4616C-33.3259 10.0882-18.3734-4.86433 0-4.86433 18.3734-4.86433 33.3259 10.0882 33.3259 28.4616L33.3259 57.9543C33.3259 76.3277 18.3734 91.2802 0 91.2802" fill="#332D2B" transform="matrix(1 0 0 -1.00161 512.794 -2630.84)"/><path d="M2922.47 273.153 255.15 273.153 255.15 1737.33 2922.47 1737.33Z" fill="#48615D" transform="matrix(1 0 0 -1.00161 -876.099 1304.22)"/><path d="M0 0C0 2.70711-0.623903 4.76916-1.88228 6.19673-3.13538 7.6296-4.82732 8.34338-6.96868 8.34338-7.8358 8.34338-8.70292 8.19005-9.57004 7.88339-10.4372 7.57143-11.2144 7.11144-11.9176 6.50868-12.6102 5.89536-13.176 5.16571-13.6148 4.31445-14.0484 3.4579-14.2652 2.46918-14.2652 1.35355L-14.2652-6.01168C-14.2652-6.76248-14.0854-7.48155-13.7259-8.17948-13.3716-8.8774-12.8693-9.51188-12.219-10.067-11.5686-10.6275-10.802-11.0769-9.919-11.4206-9.03073-11.7643-8.05258-11.9335-6.96868-11.9335-4.82732-11.9335-3.13538-11.1932-1.88228-9.71809-0.623903-8.24292 0-6.1703 0-3.49492ZM-14.2652-11.373-14.2652-24.3322-17.4799-24.3322-17.4799 10.7703-14.3075 10.7703-14.3075 7.22776C-13.562 8.502-12.5151 9.49073-11.1615 10.1834-9.81326 10.8866-8.34338 11.2355-6.76248 11.2355-5.26617 11.2355-3.90733 10.9923-2.68067 10.5112-1.44872 10.03-0.401836 9.33211 0.465284 8.41741 1.33769 7.49741 2.01447 6.37121 2.49561 5.03881 2.97676 3.69583 3.21469 2.17837 3.21469 0.465284L3.21469-3.9602C3.21469-5.668 2.96618-7.19075 2.46918-8.52844 1.97746-9.86613 1.28482-10.9923 0.396549-11.907-0.486433-12.827-1.5439-13.525-2.77055-14.0061-4.0025-14.4872-5.32961-14.7305-6.75719-14.7305-8.52844-14.7305-10.0459-14.3921-11.299-13.7259-12.5627-13.0597-13.5355-12.2771-14.2123-11.373Z" fill="#48615D" transform="matrix(1 0 0 -1.00161 391.649 -1184.7)"/><path d="M0 0C-0.872407 0.343675-1.88228 0.518157-3.03492 0.518157-4.05537 0.518157-4.98594 0.311952-5.82662-0.0898844-6.6673-0.497008-7.38109-1.05218-7.96798-1.76596-8.56016-2.48504-9.01487-3.34158-9.32682-4.33031-9.63349-5.32433-9.79211-6.4188-9.79211-7.59258L-9.79211-21.8578-13.0068-21.8578-13.0068 3.26756-9.83969 3.26756-9.83969-1.16321C-9.55947-0.57103-9.20522 0.0211493-8.78752 0.613329-8.36982 1.19493-7.85695 1.72895-7.24891 2.19424-6.64615 2.65952-5.9588 3.03492-5.19743 3.30986-4.43606 3.59537-3.57422 3.73284-2.61193 3.73284-1.89815 3.73284-1.24781 3.69055-0.676776 3.61124-0.105746 3.53721 0.449422 3.40503 0.978153 3.21469Z" fill="#48615D" transform="matrix(1 0 0 -1.00161 423.488 -1192.21)"/><path d="M0 0 0 0.422985C0 3.06136-0.602754 5.08111-1.81355 6.48225-3.02434 7.8781-4.72686 8.57603-6.9211 8.57603-9.15234 8.57603-10.8813 7.8358-12.1027 6.36064-13.324 4.89077-13.9374 2.90802-13.9374 0.422985L-13.9374 0ZM2.65423-11.7484C1.6655-12.4622 0.417698-13.1125-1.07332-13.7047-2.56435-14.2969-4.36732-14.593-6.48225-14.593-9.83441-14.593-12.4516-13.5884-14.3339-11.5845-16.2162-9.58062-17.1521-6.74661-17.1521-3.07722L-17.1521 0.0475858C-17.1521 3.61652-16.2426 6.40294-14.4238 8.39097-12.5997 10.379-10.0988 11.373-6.9211 11.373-3.62181 11.373-1.10505 10.3579 0.618616 8.32223 2.35286 6.28133 3.21469 3.5002 3.21469-0.0475858L3.21469-2.65423-13.9374-2.65423-13.9374-3.07722C-13.9374-5.87421-13.2712-8.02614-11.9388-9.53303-10.5958-11.0399-8.76637-11.7907-6.42937-11.7907-4.7533-11.7907-3.27814-11.5475-2.00389-11.0505-0.729649-10.5535 0.359537-9.97716 1.25838-9.32154Z" fill="#48615D" transform="matrix(1 0 0 -1.00161 454.023 -1184.56)"/><path d="M0 0C2.86572 0 4.96479-0.777235 6.28662-2.33171 7.60845-3.88618 8.27465-6.0011 8.27465-8.6712L8.27465-25.5906 5.05996-25.5906 5.05996-9.50659C5.05996-8.48614 4.97536-7.56615 4.80088-6.76248 4.63169-5.94823 4.3356-5.26088 3.92319-4.68456 3.5002-4.10824 2.92917-3.6694 2.19952-3.35216 1.47516-3.04549 0.549881-2.89216-0.560455-2.89216-1.58091-2.89216-2.47975-3.07722-3.25699-3.44733-4.02893-3.82273-4.68456-4.30387-5.22915-4.89605-5.77375-5.48295-6.19145-6.15443-6.48225-6.89995-6.77305-7.64546-6.93696-8.38039-6.96868-9.09418L-6.96868-25.5906-10.1834-25.5906-10.1834-9.50659C-10.1834-8.48614-10.2733-7.56615-10.4424-6.76248-10.6116-5.94823-10.9024-5.26088-11.3254-4.68456-11.7431-4.10824-12.3142-3.6694-13.0438-3.35216-13.7682-3.04549-14.6934-2.89216-15.8038-2.89216-16.8242-2.89216-17.7389-3.08779-18.5479-3.47377-19.3516-3.85974-20.0231-4.36732-20.5624-4.98594-21.107-5.60984-21.5141-6.2919-21.7943-7.03742-22.0745-7.78822-22.2173-8.53373-22.2173-9.27395L-22.2173-25.5906-25.432-25.5906-25.432-0.465284-22.2596-0.465284-22.3072-3.96549C-22.027-3.46319-21.678-2.97676-21.2603-2.49561-20.8426-2.01447-20.335-1.58619-19.7428-1.2108-19.1507-0.840683-18.495-0.544593-17.7654-0.327814-17.0357-0.111034-16.2003 1.46752e-16-15.2645 1.46752e-16-13.2447 1.46752e-16-11.6162-0.396549-10.3737-1.18965-9.13119-1.98274-8.22706-3.10894-7.66661-4.57353-7.39167-4.03951-7.02155-3.50549-6.57213-2.9609-6.12271-2.4163-5.57283-1.92458-4.93306-1.49631-4.29859-1.05746-3.56365-0.697926-2.73354-0.422985-1.90872-0.13747-0.999303 0 0 0" fill="#48615D" transform="matrix(1 0 0 -1.00161 498.191 -1195.95)"/><path d="M1399.26 2495.69 1402.47 2495.69 1402.47 2470.57 1399.26 2470.57ZM1399.11 2504.04 1402.61 2504.04 1402.61 2500.49 1399.11 2500.49Z" fill="#48615D" transform="matrix(1 0 0 -1.00161 -876.099 1304.22)"/><path d="M0 0C-2.86572 0-5.03881 0.793097-6.52455 2.37929-8.02086 3.96549-8.76637 6.05926-8.76637 8.6712L-8.76637 25.5007-5.54639 25.5007-5.54639 9.46429C-5.54639 8.56016-5.46708 7.71948-5.29789 6.92638-5.12341 6.128-4.82203 5.43536-4.38847 4.82203-3.95491 4.21928-3.34687 3.74871-2.55377 3.40503-1.76068 3.06136-0.750799 2.89216 0.49172 2.89216 1.5439 2.89216 2.51147 3.07722 3.38917 3.44733 4.27215 3.82802 5.03352 4.31445 5.668 4.9172 6.30248 5.52524 6.79949 6.20202 7.15374 6.94753 7.50799 7.69304 7.68776 8.43855 7.68776 9.18935L7.68776 25.5007 10.9024 25.5007 10.9024 0.375399 7.74063 0.375399 7.74063 3.87031C7.14845 2.90802 6.20202 2.01975 4.91192 1.21608 3.62181 0.407123 1.98274 0 0 0" fill="#48615D" transform="matrix(1 0 0 -1.00161 551.824 -1169.94)"/><path d="M0 0C2.86572 0 4.96479-0.777235 6.28662-2.33171 7.60845-3.88618 8.27465-6.0011 8.27465-8.6712L8.27465-25.5906 5.05996-25.5906 5.05996-9.50659C5.05996-8.48614 4.97536-7.56615 4.80088-6.76248 4.63169-5.94823 4.3356-5.26088 3.92319-4.68456 3.5002-4.10824 2.92917-3.6694 2.19952-3.35216 1.47516-3.04549 0.549881-2.89216-0.560455-2.89216-1.58091-2.89216-2.47975-3.07722-3.25699-3.44733-4.02893-3.82273-4.68456-4.30387-5.22915-4.89605-5.77375-5.48295-6.19145-6.15443-6.48225-6.89995-6.77305-7.64546-6.93696-8.38039-6.96868-9.09418L-6.96868-25.5906-10.1834-25.5906-10.1834-9.50659C-10.1834-8.48614-10.2733-7.56615-10.4424-6.76248-10.6116-5.94823-10.9024-5.26088-11.3254-4.68456-11.7431-4.10824-12.3142-3.6694-13.0438-3.35216-13.7682-3.04549-14.6934-2.89216-15.8038-2.89216-16.8242-2.89216-17.7389-3.08779-18.5479-3.47377-19.3516-3.85974-20.0231-4.36732-20.5624-4.98594-21.107-5.60984-21.5141-6.2919-21.7943-7.03742-22.0745-7.78822-22.2173-8.53373-22.2173-9.27395L-22.2173-25.5906-25.432-25.5906-25.432-0.465284-22.2596-0.465284-22.3072-3.96549C-22.027-3.46319-21.678-2.97676-21.2603-2.49561-20.8426-2.01447-20.335-1.58619-19.7428-1.2108-19.1507-0.840683-18.495-0.544593-17.7654-0.327814-17.0357-0.111034-16.2003 1.46752e-16-15.2698 1.46752e-16-13.2447 1.46752e-16-11.6162-0.396549-10.3737-1.18965-9.13119-1.98274-8.22706-3.10894-7.66661-4.57353-7.39167-4.03951-7.02155-3.50549-6.57213-2.9609-6.12271-2.4163-5.57283-1.92458-4.93306-1.49631-4.29859-1.05746-3.56365-0.697926-2.73354-0.422985-1.90872-0.13747-0.999303 0 0 0" fill="#48615D" transform="matrix(1 0 0 -1.00161 604.942 -1195.95)"/><path d="M1525.35 2505.81 1528.56 2505.81 1528.56 2470.57 1525.35 2470.57Z" fill="#48615D" transform="matrix(1 0 0 -1.00161 -876.099 1304.22)"/><path d="M0 0C2.33171 0 4.16112 0.724362 5.47766 2.1678 6.79949 3.61124 7.4604 5.82662 7.4604 8.80867L7.4604 11.5581C7.4604 14.5401 6.79949 16.7555 5.47766 18.2042 4.16112 19.6477 2.33171 20.372 0 20.372-2.32642 20.372-4.15583 19.6477-5.47237 18.2042-6.7942 16.7555-7.45511 14.5401-7.45511 11.5581L-7.45511 8.80867C-7.45511 5.82662-6.7942 3.61124-5.47237 2.1678-4.15583 0.724362-2.32642 0 0 0M0 23.169C3.38917 23.169 6.01696 22.1697 7.88339 20.187 9.74452 18.1937 10.6751 15.3808 10.6751 11.7484L10.6751 8.62361C10.6751 4.98594 9.74452 2.17309 7.88339 0.190343 6.01696-1.80297 3.38917-2.79699 0-2.79699-3.38388-2.79699-6.01168-1.80297-7.8781 0.190343-9.74452 2.17309-10.6698 4.98594-10.6698 8.62361L-10.6698 11.7484C-10.6698 15.4125-9.74452 18.2359-7.8781 20.2081-6.01168 22.1803-3.38388 23.169 1.17402e-15 23.169" fill="#48615D" transform="matrix(1 0 0 -1.00161 678.711 -1172.75)"/><path d="M0 0C-2.86572 0-5.03881 0.793097-6.52455 2.37929-8.02086 3.96549-8.76637 6.05926-8.76637 8.6712L-8.76637 25.5007-5.54639 25.5007-5.54639 9.46429C-5.54639 8.56016-5.4618 7.71948-5.29789 6.92638-5.12341 6.128-4.82203 5.43536-4.38847 4.82203-3.95491 4.21928-3.34687 3.74871-2.55377 3.40503-1.76068 3.06136-0.750799 2.89216 0.49172 2.89216 1.5439 2.89216 2.51147 3.07722 3.38917 3.44733 4.27215 3.82802 5.03352 4.31445 5.668 4.9172 6.30248 5.52524 6.79949 6.20202 7.15374 6.94753 7.50799 7.69304 7.68776 8.43855 7.68776 9.18935L7.68776 25.5007 10.9024 25.5007 10.9024 0.375399 7.74063 0.375399 7.74063 3.87031C7.14845 2.90802 6.20202 2.01975 4.91192 1.21608 3.62181 0.407123 1.98803 0 0 0" fill="#48615D" transform="matrix(1 0 0 -1.00161 713.583 -1169.94)"/><path d="M0 0C2.88687 0 5.11812-0.782523 6.68317-2.35286 8.25879-3.92319 9.04131-6.03283 9.04131-8.6712L9.04131-25.5906 5.82662-25.5906 5.82662-9.46429C5.82662-8.56016 5.73145-7.71948 5.54639-6.92638 5.36134-6.128 5.02824-5.43007 4.54709-4.82203 4.06595-4.21928 3.41561-3.74871 2.59607-3.40503 1.77654-3.06136 0.745511-2.89216-0.49172-2.89216-1.5439-2.89216-2.51147-3.08779-3.39446-3.47377-4.27744-3.85974-5.02824-4.36732-5.64685-4.98594-6.27076-5.60984-6.75719-6.2919-7.11144-7.03742-7.47098-7.78822-7.65074-8.53373-7.65074-9.27395L-7.65074-25.5906-10.8654-25.5906-10.8654-0.465284-7.69304-0.465284-7.69304-3.96549C-7.41282-3.5002-7.0427-3.02434-6.57742-2.5432-6.11214-2.05677-5.54639-1.63378-4.90134-1.25838-4.24571-0.888269-3.51606-0.586892-2.70711-0.35425-1.89815-0.116321-0.999303 0 0 0" fill="#48615D" transform="matrix(1 0 0 -1.00161 752.133 -1195.95)"/><path d="M0 0C0-2.70711 0.629191-4.78502 1.90343-6.24961 3.17239-7.7089 4.85904-8.43855 6.96868-8.43855 7.98913-8.43855 8.94614-8.30637 9.82912-8.04201 10.7068-7.77764 11.4735-7.3758 12.1238-6.83121 12.7742-6.28662 13.2923-5.60455 13.6783-4.77973 14.0695-3.95491 14.2652-2.98205 14.2652-1.86642L14.2652 5.22387C14.2652 5.96409 14.0854 6.70432 13.7259 7.43396 13.3716 8.16361 12.8693 8.8351 12.219 9.43786 11.5686 10.0459 10.7967 10.5323 9.89785 10.9077 8.99901 11.2831 8.02086 11.4629 6.96868 11.4629 4.82732 11.4629 3.13009 10.728 1.88228 9.2528 0.623903 7.77764 0 5.70501 0 3.02963ZM14.2652-7.55557 14.2176-7.55557C13.4985-8.82982 12.4516-9.76038 11.0663-10.3473 9.68636-10.9395 8.26407-11.2355 6.80477-11.2355 5.34019-11.2355 4.00778-10.9923 2.79699-10.5112 1.58091-10.03 0.528732-9.33211-0.375399-8.41212-1.27424-7.49741-1.97746-6.37121-2.46918-5.03881-2.96618-3.69583-3.21469-2.17837-3.21469-0.465284L-3.21469 3.49492C-3.21469 5.20801-2.96618 6.72546-2.46918 8.06316-1.97746 9.40085-1.28482 10.527-0.396549 11.447 0.486433 12.3565 1.5439 13.0597 2.77055 13.5408 4.0025 14.022 5.32433 14.2652 6.75719 14.2652 8.62361 14.2652 10.1834 13.9056 11.4417 13.1918 12.7001 12.4781 13.6518 11.6532 14.3075 10.7227L14.3075 13.7999 17.4799 13.7999 17.4799-10.9077C17.4799-14.482 16.5546-17.1785 14.704-18.992 12.8535-20.8162 10.3631-21.7256 7.22247-21.7256 5.45122-21.7256 3.8756-21.4929 2.49033-21.0224 1.10505-20.5571-0.111034-19.9226-1.1685-19.1136L0.280228-16.6445C0.86712-17.0463 1.42229-17.3794 1.95102-17.6438 2.47975-17.9081 3.01377-18.1249 3.55308-18.2994 4.09767-18.4686 4.66341-18.5849 5.2503-18.6484 5.8372-18.7065 6.48754-18.7435 7.20132-18.7435 9.52245-18.7435 11.2831-18.1091 12.4728-16.8507 13.6624-15.5923 14.2652-13.6466 14.2652-11.0029Z" fill="#48615D" transform="matrix(1 0 0 -1.00161 779.773 -1181.66)"/><path d="M0 0 0 0.422985C0 3.06136-0.608041 5.08111-1.81355 6.48225-3.02434 7.8781-4.72686 8.57603-6.92638 8.57603-9.15234 8.57603-10.8813 7.8358-12.1027 6.36064-13.3293 4.89077-13.9374 2.90802-13.9374 0.422985L-13.9374 0ZM2.65423-11.7484C1.6655-12.4622 0.417698-13.1125-1.07332-13.7047-2.56435-14.2969-4.36732-14.593-6.48225-14.593-9.83969-14.593-12.4516-13.5884-14.3339-11.5845-16.2162-9.58062-17.1521-6.74661-17.1521-3.07722L-17.1521 0.0475858C-17.1521 3.61652-16.2426 6.40294-14.4238 8.39097-12.5997 10.379-10.0988 11.373-6.92638 11.373-3.62181 11.373-1.10505 10.3579 0.618616 8.32223 2.35286 6.28133 3.21469 3.5002 3.21469-0.0475858L3.21469-2.65423-13.9374-2.65423-13.9374-3.07722C-13.9374-5.87421-13.2712-8.02614-11.9388-9.53303-10.5958-11.0399-8.76637-11.7907-6.43466-11.7907-4.7533-11.7907-3.27814-11.5475-2.00389-11.0505-0.729649-10.5535 0.359537-9.97716 1.25838-9.32154Z" fill="#48615D" transform="matrix(1 0 0 -1.00161 830.022 -1184.56)"/><path d="M0 0C-9.21579 3.47905-17.2737 8.40154-24.1683 14.7833-31.0577 21.1598-36.5301 28.837-40.5749 37.8255-44.6249 46.8086-46.65 56.8122-46.65 67.8257-46.65 80.4359-44.5086 91.1639-40.2418 100.004-35.9696 108.845-30.1218 116.057-22.709 121.635-15.5341 127.033-7.1696 131.009 2.31584 133.626-6.30248 133.325-14.5084 132.188-22.2279 130.084-31.2533 127.625-39.1526 123.76-45.9203 118.499-52.6828 113.233-58.0177 106.428-61.9145 98.0903-65.8112 89.7522-67.7622 79.6322-67.7622 67.7358-67.7622 57.3462-65.9117 47.9137-62.2211 39.4381-58.5306 30.9572-53.5394 23.7136-47.2527 17.6966-40.9608 11.6797-33.6115 7.03213-25.2046 3.75399-16.7925 0.470571-7.94155-1.17378 1.35355-1.17378L2.64366-1.17378 2.64366-0.861832C1.76596-0.565743 0.86712-0.327814 0 0" fill="#BFCCC2" transform="matrix(1 0 0 -1.00161 766.781 -1255.33)"/><path d="M0 0-42.0447 114.645-65.0128 114.645-14.3551-20.3033 1.63907-20.3033 52.503 114.645 42.2456 114.645Z" fill="#48615D" transform="matrix(1 0 0 -1.00161 514.731 -1274.49)"/><path d="M0 0-21.1228 0-21.1228-127.361-29.9156-127.361-29.9156-134.948 65.1873-134.948 65.1873-126.536 0-126.536Z" fill="#48615D" transform="matrix(1 0 0 -1.00161 180.022 -1389.32)"/><path d="M0 0 22.9681 61.7347 46.3486 0ZM37.4659 79.9865 10.5482 79.9865 10.5482 72.3939 19.2564 72.3939-29.3287-54.9616-20.3033-54.9616-2.66481-7.18017 49.2196-7.18017 67.2705-54.9616 91.4705-54.9616 37.5294 79.9865Z" fill="#48615D" transform="matrix(1 0 0 -1.00161 324.641 -1309.21)"/><path d="M0 0 22.9734 61.7347 46.3486 0ZM37.5294 79.9865 37.4659 79.9865 10.5482 79.9865 10.5482 72.3939 19.2564 72.3939-29.3287-54.9616-20.3033-54.9616-2.66481-7.18017 49.2196-7.18017 67.2705-54.9616 91.4705-54.9616Z" fill="#48615D" transform="matrix(1 0 0 -1.00161 957.037 -1309.21)"/><path d="M0 0 0-7.5873 7.44983-7.5873 7.44983-127.361 0-127.361 0-134.948 36.0225-134.948 36.0225-127.361 28.5726-127.361 28.5726-7.5873 36.0225-7.5873 36.0225 0Z" fill="#48615D" transform="matrix(1 0 0 -1.00161 621.545 -1389.32)"/><path d="M0 0C-8.34338-10.7808-21.4665-16.1739-39.3799-16.1739L-44.2495-16.1739-44.2495 103.6-38.1427 103.6C-30.7616 103.6-23.9621 102.199-17.7389 99.4015-11.5211 96.5992-6.15443 92.6443-1.63907 87.5262 2.87101 82.4081 6.35535 76.2642 8.81924 69.0999 11.2778 61.9356 12.5098 54.0522 12.5098 45.455 12.5098 25.9343 8.3381 10.7861 0 0M14.8732 95.9066C8.10017 101.173 0.200918 105.038-8.81924 107.496-17.8447 109.955-27.4835 111.187-37.7356 111.187L-65.3776 111.187-65.3776-23.7612-32.406-23.7612C-23.1056-23.7612-14.2546-22.1221-5.84248-18.8387 2.56435-15.5553 9.91372-10.913 16.2003-4.89077 22.4922 1.12091 27.4782 8.36453 31.174 16.8454 34.8646 25.321 36.7151 34.7588 36.7151 45.1484 36.7151 57.0448 34.7588 67.1595 30.8673 75.5029 26.9706 83.841 21.6357 90.6457 14.8732 95.9066" fill="#48615D" transform="matrix(1 0 0 -1.00161 845.359 -1277.95)"/><path d="M1638.76 2539.09 1694.53 2539.09 1694.53 2546.68 1638.76 2546.68Z" fill="#48615D" transform="matrix(1 0 0 -1.00161 -876.099 1304.22)"/><path d="M1694.53 2704.4 1638.76 2704.4 1638.76 2696.81 1694.53 2696.81Z" fill="#48615D" transform="matrix(1 0 0 -1.00161 -876.099 1304.22)"/><path d="M0 0 7.43396 0 7.43396-5.34548 0-5.34548 0-33.5797-6.43995-33.5797-6.43995-18.0773-37.6668-18.0773-37.6668 0.523444-21.0594 0.523444-21.0594 7.27535-37.7726 7.27535-37.7726 12.6208-14.5137 12.6208-14.5137-4.82203-31.1687-4.82203-31.1687-12.7371-6.43995-12.7371-6.43995 14.3498 0 14.3498Z" fill="#48615D" transform="matrix(1 0 0 -1.00161 1132.73 -1287.79)"/><path d="M2079.01 2554.27 2072.57 2554.27 2072.57 2602.2 2079.01 2602.2ZM2057.49 2584.6 2046.23 2584.6 2046.23 2575.06 2057.49 2575.06ZM2063.93 2600.63 2063.93 2569.77 2039.78 2569.77 2039.78 2600.47 2046.22 2600.47 2046.22 2589.89 2057.49 2589.89 2057.49 2600.63Z" fill="#48615D" transform="matrix(1 0 0 -1.00161 -876.099 1304.22)"/><path d="M0 0 7.43396 0 7.43396-5.34548 0-5.34548 0-33.5797-6.44524-33.5797-6.44524-18.0773-37.1434-18.0773-37.1434 12.6208-12.9381 12.6208-12.9381 7.27535-30.6453 7.27535-30.6453-12.7371-6.44524-12.7371-6.44524 14.3498-1.17402e-15 14.3498Z" fill="#48615D" transform="matrix(1 0 0 -1.00161 1267.88 -1287.79)"/><path d="M0 0C0 2.70711-0.623903 4.76916-1.88228 6.19673-3.13538 7.6296-4.82732 8.34338-6.96868 8.34338-7.8358 8.34338-8.70292 8.19005-9.57004 7.88339-10.4372 7.57143-11.2144 7.11144-11.9176 6.50868-12.6102 5.89536-13.176 5.16571-13.6148 4.31445-14.0484 3.4579-14.2652 2.46918-14.2652 1.35355L-14.2652-6.01168C-14.2652-6.76248-14.0854-7.48155-13.7259-8.17948-13.3716-8.8774-12.8693-9.51188-12.219-10.067-11.5686-10.6275-10.802-11.0769-9.919-11.4206-9.03073-11.7643-8.05258-11.9335-6.96868-11.9335-4.82732-11.9335-3.13538-11.1932-1.88228-9.71809-0.623903-8.24292 0-6.1703 0-3.49492ZM-14.2652-11.373-14.2652-24.3322-17.4799-24.3322-17.4799 10.7703-14.3075 10.7703-14.3075 7.22776C-13.562 8.502-12.5151 9.49073-11.1615 10.1834-9.81326 10.8866-8.34338 11.2355-6.76248 11.2355-5.26617 11.2355-3.90733 10.9923-2.68067 10.5112-1.44872 10.03-0.401836 9.33211 0.465284 8.41741 1.33769 7.49741 2.01447 6.37121 2.49561 5.03881 2.97676 3.69583 3.21469 2.17837 3.21469 0.465284L3.21469-3.9602C3.21469-5.668 2.96618-7.19075 2.46918-8.52844 1.97746-9.86613 1.28482-10.9923 0.396549-11.907-0.486433-12.827-1.5439-13.525-2.77055-14.0061-4.0025-14.4872-5.32961-14.7305-6.75719-14.7305-8.52844-14.7305-10.0459-14.3921-11.299-13.7259-12.5627-13.0597-13.5355-12.2771-14.2123-11.373Z" fill="#FFFFFF" transform="matrix(1 0 0 -1.00161 391.649 394.88)"/><path d="M0 0C-0.872407 0.343675-1.88228 0.518157-3.03492 0.518157-4.05537 0.518157-4.98594 0.311952-5.82662-0.0898844-6.6673-0.497008-7.38109-1.05218-7.96798-1.76596-8.56016-2.48504-9.01487-3.34158-9.32682-4.3356-9.63349-5.32433-9.79211-6.4188-9.79211-7.59258L-9.79211-21.8578-13.0068-21.8578-13.0068 3.26756-9.83969 3.26756-9.83969-1.16321C-9.55947-0.57103-9.20522 0.0211493-8.78752 0.613329-8.36982 1.19493-7.85695 1.72895-7.24891 2.19424-6.64615 2.65952-5.9588 3.03492-5.19743 3.30986-4.43606 3.59537-3.57422 3.73284-2.61193 3.73284-1.89815 3.73284-1.24781 3.69055-0.676776 3.61124-0.105746 3.53721 0.449422 3.40503 0.978153 3.21469Z" fill="#FFFFFF" transform="matrix(1 0 0 -1.00161 423.488 387.364)"/><path d="M0 0 0 0.422985C0 3.06136-0.602754 5.08111-1.81355 6.48225-3.02434 7.8781-4.72686 8.57603-6.9211 8.57603-9.15234 8.57603-10.8813 7.8358-12.1027 6.36064-13.324 4.89077-13.9374 2.90802-13.9374 0.422985L-13.9374 0ZM2.65423-11.7484C1.6655-12.4622 0.417698-13.1125-1.07332-13.7047-2.56435-14.2916-4.36732-14.593-6.48225-14.593-9.83441-14.593-12.4516-13.5884-14.3339-11.5845-16.2162-9.58062-17.1521-6.74661-17.1521-3.07722L-17.1521 0.0475858C-17.1521 3.61652-16.2426 6.40294-14.4238 8.39097-12.5997 10.379-10.0988 11.3783-6.9211 11.3783-3.62181 11.3783-1.10505 10.3579 0.618616 8.32223 2.35286 6.28133 3.21469 3.5002 3.21469-0.0422985L3.21469-2.65423-13.9374-2.65423-13.9374-3.07722C-13.9374-5.86892-13.2712-8.02614-11.9388-9.53303-10.5958-11.0399-8.76637-11.7907-6.42937-11.7907-4.7533-11.7907-3.27814-11.5475-2.00389-11.0505-0.729649-10.5535 0.359537-9.97716 1.25838-9.32154Z" fill="#FFFFFF" transform="matrix(1 0 0 -1.00161 454.023 395.019)"/><path d="M0 0C2.86572 0 4.96479-0.777235 6.28662-2.33171 7.60845-3.88618 8.27465-6.0011 8.27465-8.6712L8.27465-25.5906 5.05996-25.5906 5.05996-9.50659C5.05996-8.48614 4.97536-7.57143 4.80088-6.76248 4.63169-5.95352 4.3356-5.26088 3.92319-4.68456 3.5002-4.10824 2.92917-3.6694 2.19952-3.35745 1.47516-3.04549 0.549881-2.89216-0.560455-2.89216-1.58091-2.89216-2.47975-3.07722-3.25699-3.44733-4.02893-3.82273-4.68456-4.30387-5.22915-4.89605-5.77375-5.48295-6.19145-6.15443-6.48225-6.89995-6.77305-7.64546-6.93696-8.38039-6.96868-9.09418L-6.96868-25.5906-10.1834-25.5906-10.1834-9.50659C-10.1834-8.48614-10.2733-7.57143-10.4424-6.76248-10.6116-5.95352-10.9024-5.26088-11.3254-4.68456-11.7431-4.10824-12.3142-3.6694-13.0438-3.35745-13.7682-3.04549-14.6934-2.89216-15.8038-2.89216-16.8242-2.89216-17.7389-3.08779-18.5479-3.47377-19.3516-3.85974-20.0231-4.36732-20.5624-4.98594-21.107-5.60984-21.5141-6.2919-21.7943-7.03742-22.0745-7.78822-22.2173-8.53373-22.2173-9.27395L-22.2173-25.5906-25.432-25.5906-25.432-0.465284-22.2596-0.465284-22.3072-3.96549C-22.027-3.46319-21.678-2.97676-21.2603-2.49561-20.8426-2.01447-20.335-1.58619-19.7428-1.2108-19.1507-0.840683-18.495-0.544593-17.7654-0.327814-17.0357-0.111034-16.2003 1.46752e-16-15.2645 1.46752e-16-13.2447 1.46752e-16-11.6162-0.396549-10.3737-1.18965-9.13119-1.97746-8.22706-3.10894-7.66661-4.57353-7.39167-4.03951-7.02155-3.50549-6.57213-2.9609-6.12271-2.4163-5.57283-1.92458-4.93306-1.49631-4.29859-1.05746-3.56365-0.697926-2.73354-0.422985-1.90872-0.13747-0.999303 0 0 0" fill="#FFFFFF" transform="matrix(1 0 0 -1.00161 498.191 383.625)"/><path d="M1399.26 918.655 1402.47 918.655 1402.47 893.53 1399.26 893.53ZM1399.11 926.998 1402.61 926.998 1402.61 923.456 1399.11 923.456Z" fill="#FFFFFF" transform="matrix(1 0 0 -1.00161 -876.099 1304.22)"/><path d="M0 0C-2.86572 0-5.03881 0.793097-6.52455 2.37929-8.02086 3.96549-8.76637 6.05926-8.76637 8.6712L-8.76637 25.5007-5.54639 25.5007-5.54639 9.46429C-5.54639 8.56016-5.46708 7.71948-5.29789 6.9211-5.12341 6.128-4.82203 5.43536-4.38847 4.82203-3.95491 4.21928-3.34687 3.74871-2.55377 3.40503-1.76068 3.06136-0.750799 2.89216 0.49172 2.89216 1.5439 2.89216 2.51147 3.07722 3.38917 3.44733 4.27215 3.82802 5.03352 4.31445 5.668 4.9172 6.30248 5.52524 6.79949 6.20202 7.15374 6.94753 7.50799 7.69304 7.68776 8.43855 7.68776 9.18935L7.68776 25.5007 10.9024 25.5007 10.9024 0.375399 7.74063 0.375399 7.74063 3.87031C7.14845 2.90802 6.20202 2.01975 4.91192 1.21608 3.62181 0.407123 1.98274 0 0 0" fill="#FFFFFF" transform="matrix(1 0 0 -1.00161 551.824 409.635)"/><path d="M0 0C2.86572 0 4.96479-0.777235 6.28662-2.33171 7.60845-3.88618 8.27465-6.0011 8.27465-8.6712L8.27465-25.5906 5.05996-25.5906 5.05996-9.50659C5.05996-8.48614 4.97536-7.57143 4.80088-6.76248 4.63169-5.95352 4.3356-5.26088 3.92319-4.68456 3.5002-4.10824 2.92917-3.6694 2.19952-3.35745 1.47516-3.04549 0.549881-2.89216-0.560455-2.89216-1.58091-2.89216-2.47975-3.07722-3.25699-3.44733-4.02893-3.82273-4.68456-4.30387-5.22915-4.89605-5.77375-5.48295-6.19145-6.15443-6.48225-6.89995-6.77305-7.64546-6.93696-8.38039-6.96868-9.09418L-6.96868-25.5906-10.1834-25.5906-10.1834-9.50659C-10.1834-8.48614-10.2733-7.57143-10.4424-6.76248-10.6116-5.95352-10.9024-5.26088-11.3254-4.68456-11.7431-4.10824-12.3142-3.6694-13.0438-3.35745-13.7682-3.04549-14.6934-2.89216-15.8038-2.89216-16.8242-2.89216-17.7389-3.08779-18.5479-3.47377-19.3516-3.85974-20.0231-4.36732-20.5624-4.98594-21.107-5.60984-21.5141-6.2919-21.7943-7.03742-22.0745-7.78822-22.2173-8.53373-22.2173-9.27395L-22.2173-25.5906-25.432-25.5906-25.432-0.465284-22.2596-0.465284-22.3072-3.96549C-22.027-3.46319-21.678-2.97676-21.2603-2.49561-20.8426-2.01447-20.335-1.58619-19.7428-1.2108-19.1507-0.840683-18.495-0.544593-17.7654-0.327814-17.0357-0.111034-16.2003 1.46752e-16-15.2698 1.46752e-16-13.2447 1.46752e-16-11.6162-0.396549-10.3737-1.18965-9.13119-1.97746-8.22706-3.10894-7.66661-4.57353-7.39167-4.03951-7.02155-3.50549-6.57213-2.9609-6.12271-2.4163-5.57283-1.92458-4.93306-1.49631-4.29859-1.05746-3.56365-0.697926-2.73354-0.422985-1.90872-0.13747-0.999303 0 0 0" fill="#FFFFFF" transform="matrix(1 0 0 -1.00161 604.942 383.625)"/><path d="M1525.35 928.77 1528.56 928.77 1528.56 893.53 1525.35 893.53Z" fill="#FFFFFF" transform="matrix(1 0 0 -1.00161 -876.099 1304.22)"/><path d="M0 0C2.33171 0 4.16112 0.724362 5.47766 2.1678 6.79949 3.61124 7.4604 5.82662 7.4604 8.80867L7.4604 11.5581C7.4604 14.5401 6.79949 16.7555 5.47766 18.2042 4.16112 19.6477 2.33171 20.3667 0 20.3667-2.32642 20.3667-4.15583 19.6477-5.47237 18.2042-6.7942 16.7555-7.45511 14.5401-7.45511 11.5581L-7.45511 8.80867C-7.45511 5.82662-6.7942 3.61124-5.47237 2.1678-4.15583 0.724362-2.32642 0 0 0M0 23.169C3.38917 23.169 6.01696 22.1697 7.88339 20.187 9.74452 18.1937 10.6751 15.3808 10.6751 11.7484L10.6751 8.62361C10.6751 4.98594 9.74452 2.17309 7.88339 0.190343 6.01696-1.80297 3.38917-2.79699 0-2.79699-3.38388-2.79699-6.01168-1.80297-7.8781 0.190343-9.74452 2.17309-10.6698 4.98594-10.6698 8.62361L-10.6698 11.7484C-10.6698 15.4125-9.74452 18.2359-7.8781 20.2081-6.01168 22.1803-3.38388 23.169 1.17402e-15 23.169" fill="#FFFFFF" transform="matrix(1 0 0 -1.00161 678.711 406.831)"/><path d="M0 0C-2.86572 0-5.03881 0.793097-6.52455 2.37929-8.02086 3.96549-8.76637 6.05926-8.76637 8.6712L-8.76637 25.5007-5.54639 25.5007-5.54639 9.46429C-5.54639 8.56016-5.4618 7.71948-5.29789 6.9211-5.12341 6.128-4.82203 5.43536-4.38847 4.82203-3.95491 4.21928-3.34687 3.74871-2.55377 3.40503-1.76068 3.06136-0.750799 2.89216 0.49172 2.89216 1.5439 2.89216 2.51147 3.07722 3.38917 3.44733 4.27215 3.82802 5.03352 4.31445 5.668 4.9172 6.30248 5.52524 6.79949 6.20202 7.15374 6.94753 7.50799 7.69304 7.68776 8.43855 7.68776 9.18935L7.68776 25.5007 10.9024 25.5007 10.9024 0.375399 7.74063 0.375399 7.74063 3.87031C7.14845 2.90802 6.20202 2.01975 4.91192 1.21608 3.62181 0.407123 1.98803 0 0 0" fill="#FFFFFF" transform="matrix(1 0 0 -1.00161 713.583 409.635)"/><path d="M0 0C2.88687 0 5.11812-0.782523 6.68317-2.35286 8.25879-3.92319 9.04131-6.03283 9.04131-8.6712L9.04131-25.5906 5.82662-25.5906 5.82662-9.46429C5.82662-8.56016 5.73145-7.71948 5.54639-6.9211 5.36134-6.128 5.02824-5.43007 4.54709-4.82203 4.06595-4.21928 3.41561-3.74871 2.59607-3.40503 1.77654-3.06136 0.745511-2.89216-0.49172-2.89216-1.5439-2.89216-2.51147-3.08779-3.39446-3.47377-4.27744-3.85974-5.02824-4.36732-5.64685-4.98594-6.27076-5.60984-6.75719-6.2919-7.11144-7.03742-7.47098-7.78822-7.65074-8.53373-7.65074-9.27395L-7.65074-25.5906-10.8654-25.5906-10.8654-0.465284-7.69304-0.465284-7.69304-3.96549C-7.41282-3.5002-7.0427-3.02434-6.57742-2.5432-6.11214-2.05677-5.54639-1.63378-4.90134-1.25838-4.24571-0.888269-3.51606-0.586892-2.70711-0.35425-1.89815-0.121608-0.999303 0 0 0" fill="#FFFFFF" transform="matrix(1 0 0 -1.00161 752.133 383.625)"/><path d="M0 0C0-2.70711 0.629191-4.78502 1.90343-6.24961 3.17239-7.7089 4.85904-8.43855 6.96868-8.43855 7.98913-8.43855 8.94614-8.30637 9.82912-8.04201 10.7068-7.77764 11.4735-7.3758 12.1238-6.83121 12.7742-6.28662 13.2923-5.60455 13.6783-4.77973 14.0695-3.95491 14.2652-2.98205 14.2652-1.86642L14.2652 5.22387C14.2652 5.96409 14.0854 6.70432 13.7259 7.43396 13.3716 8.16361 12.8693 8.8351 12.219 9.43786 11.5686 10.0459 10.7967 10.5323 9.89785 10.9077 8.99901 11.2831 8.02086 11.4629 6.96868 11.4629 4.82732 11.4629 3.13009 10.728 1.88228 9.2528 0.623903 7.77764 0 5.70501 0 3.02963ZM14.2652-7.55557 14.2176-7.55557C13.4985-8.82982 12.4516-9.76038 11.0663-10.3473 9.68636-10.9395 8.26407-11.2355 6.80477-11.2355 5.34019-11.2355 4.00778-10.9923 2.79699-10.5112 1.58091-10.03 0.528732-9.33211-0.375399-8.41212-1.27424-7.49741-1.97746-6.37121-2.46918-5.03881-2.96618-3.69583-3.21469-2.17837-3.21469-0.465284L-3.21469 3.49492C-3.21469 5.20801-2.96618 6.72546-2.46918 8.06316-1.97746 9.40085-1.28482 10.527-0.396549 11.447 0.486433 12.3565 1.5439 13.0597 2.77055 13.5408 4.0025 14.022 5.32433 14.2652 6.75719 14.2652 8.62361 14.2652 10.1834 13.9056 11.4417 13.1918 12.7001 12.4781 13.6518 11.6532 14.3075 10.7227L14.3075 13.7999 17.4799 13.7999 17.4799-10.9077C17.4799-14.482 16.5546-17.1785 14.704-18.992 12.8535-20.8162 10.3631-21.7256 7.22247-21.7256 5.45122-21.7256 3.8756-21.4929 2.49033-21.0224 1.10505-20.5571-0.111034-19.9226-1.1685-19.1136L0.280228-16.6445C0.86712-17.0463 1.42229-17.3794 1.95102-17.6438 2.47975-17.9081 3.01377-18.1249 3.55308-18.2994 4.09767-18.4686 4.66341-18.5849 5.2503-18.6484 5.8372-18.7065 6.48754-18.7435 7.20132-18.7435 9.52245-18.7435 11.2831-18.1091 12.4728-16.8507 13.6624-15.5923 14.2652-13.6466 14.2652-11.0029Z" fill="#FFFFFF" transform="matrix(1 0 0 -1.00161 779.773 397.913)"/><path d="M0 0 0 0.422985C0 3.06136-0.608041 5.08111-1.81355 6.48225-3.02434 7.8781-4.72686 8.57603-6.92638 8.57603-9.15234 8.57603-10.8813 7.8358-12.1027 6.36064-13.3293 4.89077-13.9374 2.90802-13.9374 0.422985L-13.9374 0ZM2.65423-11.7484C1.6655-12.4622 0.417698-13.1125-1.07332-13.7047-2.56435-14.2916-4.36732-14.593-6.48225-14.593-9.83969-14.593-12.4516-13.5884-14.3339-11.5845-16.2162-9.58062-17.1521-6.74661-17.1521-3.07722L-17.1521 0.0475858C-17.1521 3.61652-16.2426 6.40294-14.4238 8.39097-12.5997 10.379-10.0988 11.3783-6.92638 11.3783-3.62181 11.3783-1.10505 10.3579 0.618616 8.32223 2.35286 6.28133 3.21469 3.5002 3.21469-0.0422985L3.21469-2.65423-13.9374-2.65423-13.9374-3.07722C-13.9374-5.86892-13.2712-8.02614-11.9388-9.53303-10.5958-11.0399-8.76637-11.7907-6.43466-11.7907-4.7533-11.7907-3.27814-11.5475-2.00389-11.0505-0.729649-10.5535 0.359537-9.97716 1.25838-9.32154Z" fill="#FFFFFF" transform="matrix(1 0 0 -1.00161 830.022 395.019)"/><path d="M0 0C-9.21579 3.47905-17.2737 8.40154-24.1683 14.7833-31.0577 21.1598-36.5301 28.837-40.5749 37.8255-44.6249 46.8139-46.65 56.8122-46.65 67.8257-46.65 80.4359-44.5086 91.1639-40.2418 100.004-35.9696 108.845-30.1218 116.057-22.709 121.635-15.5341 127.033-7.1696 131.009 2.31584 133.626-6.30248 133.325-14.5084 132.188-22.2279 130.084-31.2533 127.625-39.1526 123.76-45.9203 118.499-52.6828 113.233-58.0177 106.428-61.9145 98.0903-65.8112 89.7522-67.7622 79.6322-67.7622 67.7358-67.7622 57.3462-65.9117 47.9137-62.2211 39.4381-58.5306 30.9572-53.5394 23.7136-47.2527 17.6966-40.9608 11.6797-33.6115 7.03213-25.2046 3.75399-16.7925 0.470571-7.94155-1.17378 1.35355-1.17378L2.64366-1.17378 2.64366-0.861832C1.76596-0.565743 0.86712-0.327814 0 0" fill="#7D8581" transform="matrix(1 0 0 -1.00161 766.781 324.249)"/><path d="M0 0-42.0447 114.645-65.0128 114.645-14.3551-20.3033 1.63907-20.3033 52.503 114.645 42.2456 114.645Z" fill="#FFFFFF" transform="matrix(1 0 0 -1.00161 514.731 305.085)"/><path d="M0 0-21.1228 0-21.1228-127.361-29.9156-127.361-29.9156-134.948 65.1873-134.948 65.1873-126.536 0-126.536Z" fill="#FFFFFF" transform="matrix(1 0 0 -1.00161 180.022 190.257)"/><path d="M0 0 22.9681 61.7347 46.3486 0ZM37.4659 79.9865 10.5482 79.9865 10.5482 72.3939 19.2564 72.3939-29.3287-54.9616-20.3033-54.9616-2.66481-7.17489 49.2196-7.17489 67.2705-54.9616 91.4705-54.9616 37.5294 79.9865Z" fill="#FFFFFF" transform="matrix(1 0 0 -1.00161 324.641 270.371)"/><path d="M0 0 22.9734 61.7347 46.3486 0ZM37.5294 79.9865 37.4659 79.9865 10.5482 79.9865 10.5482 72.3939 19.2564 72.3939-29.3287-54.9616-20.3033-54.9616-2.66481-7.17489 49.2196-7.17489 67.2705-54.9616 91.4705-54.9616Z" fill="#FFFFFF" transform="matrix(1 0 0 -1.00161 957.037 270.371)"/><path d="M0 0 0-7.5873 7.44983-7.5873 7.44983-127.361 0-127.361 0-134.948 36.0225-134.948 36.0225-127.361 28.5726-127.361 28.5726-7.5873 36.0225-7.5873 36.0225 0Z" fill="#FFFFFF" transform="matrix(1 0 0 -1.00161 621.545 190.257)"/><path d="M0 0C-8.34338-10.7808-21.4665-16.1739-39.3799-16.1739L-44.2495-16.1739-44.2495 103.6-38.1427 103.6C-30.7616 103.6-23.9621 102.199-17.7389 99.4015-11.5211 96.5992-6.15443 92.6443-1.63907 87.5262 2.87101 82.4081 6.35535 76.2642 8.81924 69.0999 11.2778 61.9356 12.5098 54.0522 12.5098 45.455 12.5098 25.9343 8.3381 10.7861 0 0M14.8732 95.9066C8.10017 101.173 0.200918 105.038-8.81924 107.496-17.8447 109.955-27.4835 111.187-37.7356 111.187L-65.3776 111.187-65.3776-23.7612-32.406-23.7612C-23.1056-23.7612-14.2546-22.1221-5.84248-18.8387 2.56435-15.5553 9.91372-10.913 16.2003-4.89077 22.4922 1.12091 27.4782 8.36453 31.174 16.8454 34.8646 25.321 36.7151 34.7588 36.7151 45.1484 36.7151 57.0448 34.7588 67.1595 30.8673 75.5029 26.9706 83.841 21.6357 90.6457 14.8732 95.9066" fill="#FFFFFF" transform="matrix(1 0 0 -1.00161 845.359 301.623)"/><path d="M1638.76 962.048 1694.53 962.048 1694.53 969.635 1638.76 969.635Z" fill="#FFFFFF" transform="matrix(1 0 0 -1.00161 -876.099 1304.22)"/><path d="M1694.53 1127.36 1638.76 1127.36 1638.76 1119.77 1694.53 1119.77Z" fill="#FFFFFF" transform="matrix(1 0 0 -1.00161 -876.099 1304.22)"/><path d="M0 0 7.43396 0 7.43396-5.34548 0-5.34548 0-33.5797-6.43995-33.5797-6.43995-18.0773-37.6668-18.0773-37.6668 0.523444-21.0594 0.523444-21.0594 7.27535-37.7726 7.27535-37.7726 12.6208-14.5137 12.6208-14.5137-4.82203-31.1687-4.82203-31.1687-12.7319-6.43995-12.7319-6.43995 14.3498 0 14.3498Z" fill="#FFFFFF" transform="matrix(1 0 0 -1.00161 1132.73 291.789)"/><path d="M2079.01 977.228 2072.57 977.228 2072.57 1025.16 2079.01 1025.16ZM2057.49 1007.56 2046.23 1007.56 2046.23 998.018 2057.49 998.018ZM2063.93 1023.59 2063.93 992.73 2039.78 992.73 2039.78 1023.43 2046.22 1023.43 2046.22 1012.85 2057.49 1012.85 2057.49 1023.59Z" fill="#FFFFFF" transform="matrix(1 0 0 -1.00161 -876.099 1304.22)"/><path d="M0 0 7.43396 0 7.43396-5.34548 0-5.34548 0-33.5797-6.44524-33.5797-6.44524-18.0773-37.1434-18.0773-37.1434 12.6208-12.9381 12.6208-12.9381 7.27535-30.6453 7.27535-30.6453-12.7319-6.44524-12.7319-6.44524 14.3498-1.17402e-15 14.3498Z" fill="#FFFFFF" transform="matrix(1 0 0 -1.00161 1267.88 291.789)"/></g></svg>